<svg version="1.1" viewBox="0.0 0.0 960.9133858267717 622.3569553805775" fill="none" stroke="none" stroke-linecap="square" stroke-miterlimit="10" xmlns:xlink="http://www.w3.org/1999/xlink" xmlns="http://www.w3.org/2000/svg"><clipPath id="p.0"><path d="m0 0l960.9134 0l0 622.35693l-960.9134 0l0 -622.35693z" clip-rule="nonzero"/></clipPath><g clip-path="url(#p.0)"><path fill="#000000" fill-opacity="0.0" d="m0 0l960.9134 0l0 622.35693l-960.9134 0z" fill-rule="evenodd"/><path fill="#fff2cc" d="m98.13911 235.59055l239.08661 0l0 287.46457l-239.08661 0z" fill-rule="evenodd"/><path stroke="#000000" stroke-width="1.0" stroke-linejoin="round" stroke-linecap="butt" stroke-dasharray="4.0,3.0" d="m98.13911 235.59055l239.08661 0l0 287.46457l-239.08661 0z" fill-rule="evenodd"/><path fill="#3d85c6" d="m153.80315 68.74541l0 0c0 -6.1316643 4.970703 -11.102364 11.102371 -11.102364l111.93701 0c2.944519 0 5.768463 1.1697121 7.8505554 3.2518082c2.0820923 2.082096 3.2518005 4.9060287 3.2518005 7.8505554l0 44.409447c0 6.131668 -4.970703 11.102364 -11.102356 11.102364l-111.93701 0c-6.131668 0 -11.102371 -4.9706955 -11.102371 -11.102364z" fill-rule="evenodd"/><path fill="#ffffff" d="m190.62482 81.94826l0 4.921875l-2.3125 0l0 -13.265625l5.078125 0q2.21875 0 3.53125 1.15625q1.3125 1.15625 1.3125 3.0625q0 1.953125 -1.28125 3.046875q-1.28125 1.078125 -3.59375 1.078125l-2.734375 0zm0 -1.859375l2.765625 0q1.234375 0 1.875 -0.578125q0.65625 -0.578125 0.65625 -1.671875q0 -1.078125 -0.65625 -1.71875q-0.65625 -0.640625 -1.8125 -0.65625l-2.828125 0l0 4.625zm14.564957 -1.046875q-0.4375 -0.078125 -0.90625 -0.078125q-1.515625 0 -2.046875 1.171875l0 6.734375l-2.21875 0l0 -9.859375l2.125 0l0.046875 1.109375q0.796875 -1.28125 2.21875 -1.28125q0.484375 0 0.78125 0.125l0 2.078125zm0.6525879 2.8125q0 -1.453125 0.578125 -2.609375q0.578125 -1.171875 1.609375 -1.78125q1.03125 -0.625 2.390625 -0.625q1.984375 0 3.234375 1.28125q1.25 1.28125 1.34375 3.40625l0.015625 0.515625q0 1.453125 -0.5625 2.609375q-0.5625 1.140625 -1.609375 1.78125q-1.046875 0.625 -2.40625 0.625q-2.09375 0 -3.34375 -1.390625q-1.25 -1.390625 -1.25 -3.703125l0 -0.109375zm2.21875 0.1875q0 1.515625 0.625 2.390625q0.625 0.859375 1.75 0.859375q1.125 0 1.734375 -0.875q0.625 -0.875 0.625 -2.5625q0 -1.5 -0.640625 -2.375q-0.640625 -0.875 -1.734375 -0.875q-1.09375 0 -1.734375 0.859375q-0.625 0.859375 -0.625 2.578125zm12.871674 3.25q0.82810974 0 1.3749847 -0.484375q0.546875 -0.484375 0.578125 -1.203125l2.09375 0q-0.046875 0.921875 -0.59375 1.71875q-0.53125 0.796875 -1.453125 1.265625q-0.90625 0.46875 -1.9843597 0.46875q-2.0625 0 -3.28125 -1.34375q-1.203125 -1.34375 -1.203125 -3.703125l0 -0.21875q0 -2.25 1.203125 -3.59375q1.203125 -1.359375 3.28125 -1.359375q1.7499847 0 2.8593597 1.03125q1.109375 1.015625 1.171875 2.671875l-2.09375 0q-0.03125 -0.84375 -0.578125 -1.390625q-0.546875 -0.546875 -1.3749847 -0.546875q-1.078125 0 -1.671875 0.78125q-0.578125 0.78125 -0.578125 2.359375l0 0.359375q0 1.609375 0.578125 2.40625q0.578125 0.78125 1.671875 0.78125zm10.046616 1.765625q-2.09375 0 -3.40625 -1.328125q-1.3125 -1.328125 -1.3125 -3.53125l0 -0.28125q0 -1.46875 0.5625 -2.625q0.578125 -1.171875 1.609375 -1.8125q1.03125 -0.640625 2.296875 -0.640625q2.015625 0 3.109375 1.28125q1.09375 1.28125 1.09375 3.625l0 0.890625l-6.4375 0q0.109375 1.234375 0.8125 1.953125q0.71875 0.703125 1.8125 0.703125q1.515625 0 2.46875 -1.234375l1.203125 1.140625q-0.59375 0.875 -1.59375 1.375q-0.984375 0.484375 -2.21875 0.484375zm-0.265625 -8.453125q-0.90625 0 -1.46875 0.640625q-0.5625 0.640625 -0.703125 1.78125l4.203125 0l0 -0.171875q-0.0625 -1.109375 -0.59375 -1.671875q-0.515625 -0.578125 -1.4375 -0.578125zm11.464462 5.59375q0 -0.59375 -0.484375 -0.90625q-0.484375 -0.3125 -1.625 -0.546875q-1.125 -0.234375 -1.875 -0.609375q-1.65625 -0.796875 -1.65625 -2.3125q0 -1.28125 1.0625 -2.125q1.078125 -0.859375 2.734375 -0.859375q1.78125 0 2.859375 0.875q1.09375 0.859375 1.09375 2.265625l-2.21875 0q0 -0.640625 -0.46875 -1.0625q-0.46875 -0.421875 -1.265625 -0.421875q-0.71875 0 -1.1875 0.34375q-0.453125 0.328125 -0.453125 0.890625q0 0.515625 0.421875 0.796875q0.4375 0.28125 1.734375 0.5625q1.296875 0.28125 2.03125 0.6875q0.75 0.390625 1.109375 0.953125q0.375 0.546875 0.375 1.34375q0 1.328125 -1.109375 2.15625q-1.109375 0.828125 -2.890625 0.828125q-1.203125 0 -2.15625 -0.4375q-0.953125 -0.4375 -1.484375 -1.203125q-0.515625 -0.765625 -0.515625 -1.65625l2.140625 0q0.046875 0.78125 0.59375 1.21875q0.546875 0.421875 1.453125 0.421875q0.875 0 1.328125 -0.328125q0.453125 -0.34375 0.453125 -0.875zm9.628738 0q0 -0.59375 -0.484375 -0.90625q-0.484375 -0.3125 -1.625 -0.546875q-1.125 -0.234375 -1.875 -0.609375q-1.65625 -0.796875 -1.65625 -2.3125q0 -1.28125 1.0625 -2.125q1.078125 -0.859375 2.734375 -0.859375q1.78125 0 2.859375 0.875q1.09375 0.859375 1.09375 2.265625l-2.21875 0q0 -0.640625 -0.46875 -1.0625q-0.46875 -0.421875 -1.265625 -0.421875q-0.71875 0 -1.1875 0.34375q-0.453125 0.328125 -0.453125 0.890625q0 0.515625 0.421875 0.796875q0.4375 0.28125 1.734375 0.5625q1.296875 0.28125 2.03125 0.6875q0.75 0.390625 1.109375 0.953125q0.375 0.546875 0.375 1.34375q0 1.328125 -1.109375 2.15625q-1.109375 0.828125 -2.890625 0.828125q-1.203125 0 -2.15625 -0.4375q-0.953125 -0.4375 -1.484375 -1.203125q-0.515625 -0.765625 -0.515625 -1.65625l2.140625 0q0.046875 0.78125 0.59375 1.21875q0.546875 0.421875 1.453125 0.421875q0.875 0 1.328125 -0.328125q0.453125 -0.34375 0.453125 -0.875z" fill-rule="nonzero"/><path fill="#ffffff" d="m203.5412 103.24513l-5.328125 0l0 5.625l-2.3125 0l0 -13.265625l8.4375 0l0 1.859375l-6.125 0l0 3.953125l5.328125 0l0 1.828125zm7.3237 -2.203125q-0.4375 -0.078125 -0.90625 -0.078125q-1.515625 0 -2.046875 1.171875l0 6.734375l-2.21875 0l0 -9.859375l2.125 0l0.046875 1.109375q0.796875 -1.28125 2.21875 -1.28125q0.484375 0 0.78125 0.125l0 2.078125zm7.0041504 7.828125q-0.140625 -0.28125 -0.25 -0.921875q-1.046875 1.109375 -2.578125 1.109375q-1.484375 0 -2.4375 -0.84375q-0.9375 -0.859375 -0.9375 -2.109375q0 -1.578125 1.171875 -2.40625q1.171875 -0.84375 3.359375 -0.84375l1.359375 0l0 -0.65625q0 -0.765625 -0.4375 -1.21875q-0.421875 -0.46875 -1.296875 -0.46875q-0.765625 0 -1.25 0.390625q-0.46875 0.375 -0.46875 0.953125l-2.21875 0q0 -0.8125 0.53125 -1.515625q0.546875 -0.703125 1.46875 -1.09375q0.921875 -0.40625 2.0625 -0.40625q1.734375 0 2.75 0.875q1.03125 0.859375 1.0625 2.4375l0 4.4375q0 1.328125 0.375 2.125l0 0.15625l-2.265625 0zm-2.421875 -1.59375q0.65625 0 1.234375 -0.3125q0.578125 -0.328125 0.875 -0.859375l0 -1.859375l-1.203125 0q-1.234375 0 -1.859375 0.4375q-0.609375 0.421875 -0.609375 1.203125q0 0.640625 0.421875 1.015625q0.421875 0.375 1.140625 0.375zm8.718323 -8.265625l0.0625 1.03125q1.03125 -1.203125 2.84375 -1.203125q1.96875 0 2.703125 1.5q1.078125 -1.5 3.015625 -1.5q1.640625 0 2.4375 0.90625q0.796875 0.890625 0.8125 2.640625l0 6.484375l-2.21875 0l0 -6.40625q0 -0.9375 -0.40625 -1.375q-0.40625 -0.4375 -1.359375 -0.4375q-0.75 0 -1.234375 0.40625q-0.46875 0.390625 -0.671875 1.046875l0.015625 6.765625l-2.21875 0l0 -6.484375q-0.046875 -1.734375 -1.765625 -1.734375q-1.328125 0 -1.890625 1.078125l0 7.140625l-2.21875 0l0 -9.859375l2.09375 0zm18.483124 10.046875q-2.09375 0 -3.40625 -1.328125q-1.3125 -1.328125 -1.3125 -3.53125l0 -0.28125q0 -1.46875 0.5625 -2.625q0.578125 -1.171875 1.609375 -1.8125q1.03125 -0.640625 2.296875 -0.640625q2.015625 0 3.109375 1.28125q1.09375 1.28125 1.09375 3.625l0 0.890625l-6.4375 0q0.109375 1.234375 0.8125 1.953125q0.71875 0.703125 1.8125 0.703125q1.515625 0 2.46875 -1.234375l1.203125 1.140625q-0.59375 0.875 -1.59375 1.375q-0.984375 0.484375 -2.21875 0.484375zm-0.265625 -8.453125q-0.90625 0 -1.46875 0.640625q-0.5625 0.640625 -0.703125 1.78125l4.203125 0l0 -0.171875q-0.0625 -1.109375 -0.59375 -1.671875q-0.515625 -0.578125 -1.4375 -0.578125z" fill-rule="nonzero"/><path fill="#3d85c6" d="m153.80315 284.56168l0 0c0 -6.131653 4.970703 -11.102356 11.102371 -11.102356l111.93701 0c2.944519 0 5.768463 1.1697083 7.8505554 3.2518005c2.0820923 2.0820923 3.2518005 4.9060364 3.2518005 7.8505554l0 44.409454c0 6.131653 -4.970703 11.102356 -11.102356 11.102356l-111.93701 0c-6.131668 0 -11.102371 -4.970703 -11.102371 -11.102356z" fill-rule="evenodd"/><path fill="#ffffff" d="m190.62482 308.76453l0 4.921875l-2.3125 0l0 -13.265625l5.078125 0q2.21875 0 3.53125 1.15625q1.3125 1.15625 1.3125 3.0625q0 1.953125 -1.28125 3.046875q-1.28125 1.078125 -3.59375 1.078125l-2.734375 0zm0 -1.859375l2.765625 0q1.234375 0 1.875 -0.578125q0.65625 -0.578125 0.65625 -1.671875q0 -1.078125 -0.65625 -1.71875q-0.65625 -0.640625 -1.8125 -0.65625l-2.828125 0l0 4.625zm14.564957 -1.046875q-0.4375 -0.078125 -0.90625 -0.078125q-1.515625 0 -2.046875 1.171875l0 6.734375l-2.21875 0l0 -9.859375l2.125 0l0.046875 1.109375q0.796875 -1.28125 2.21875 -1.28125q0.484375 0 0.78125 0.125l0 2.078125zm0.6525879 2.8125q0 -1.453125 0.578125 -2.609375q0.578125 -1.171875 1.609375 -1.78125q1.03125 -0.625 2.390625 -0.625q1.984375 0 3.234375 1.28125q1.25 1.28125 1.34375 3.40625l0.015625 0.515625q0 1.453125 -0.5625 2.609375q-0.5625 1.140625 -1.609375 1.78125q-1.046875 0.625 -2.40625 0.625q-2.09375 0 -3.34375 -1.390625q-1.25 -1.390625 -1.25 -3.703125l0 -0.109375zm2.21875 0.1875q0 1.515625 0.625 2.390625q0.625 0.859375 1.75 0.859375q1.125 0 1.734375 -0.875q0.625 -0.875 0.625 -2.5625q0 -1.5 -0.640625 -2.375q-0.640625 -0.875 -1.734375 -0.875q-1.09375 0 -1.734375 0.859375q-0.625 0.859375 -0.625 2.578125zm12.871674 3.25q0.82810974 0 1.3749847 -0.484375q0.546875 -0.484375 0.578125 -1.203125l2.09375 0q-0.046875 0.921875 -0.59375 1.71875q-0.53125 0.796875 -1.453125 1.265625q-0.90625 0.46875 -1.9843597 0.46875q-2.0625 0 -3.28125 -1.34375q-1.203125 -1.34375 -1.203125 -3.703125l0 -0.21875q0 -2.25 1.203125 -3.59375q1.203125 -1.359375 3.28125 -1.359375q1.7499847 0 2.8593597 1.03125q1.109375 1.015625 1.171875 2.671875l-2.09375 0q-0.03125 -0.84375 -0.578125 -1.390625q-0.546875 -0.546875 -1.3749847 -0.546875q-1.078125 0 -1.671875 0.78125q-0.578125 0.78125 -0.578125 2.359375l0 0.359375q0 1.609375 0.578125 2.40625q0.578125 0.78125 1.671875 0.78125zm10.046616 1.765625q-2.09375 0 -3.40625 -1.328125q-1.3125 -1.328125 -1.3125 -3.53125l0 -0.28125q0 -1.46875 0.5625 -2.625q0.578125 -1.171875 1.609375 -1.8125q1.03125 -0.640625 2.296875 -0.640625q2.015625 0 3.109375 1.28125q1.09375 1.28125 1.09375 3.625l0 0.890625l-6.4375 0q0.109375 1.234375 0.8125 1.953125q0.71875 0.703125 1.8125 0.703125q1.515625 0 2.46875 -1.234375l1.203125 1.140625q-0.59375 0.875 -1.59375 1.375q-0.984375 0.484375 -2.21875 0.484375zm-0.265625 -8.453125q-0.90625 0 -1.46875 0.640625q-0.5625 0.640625 -0.703125 1.78125l4.203125 0l0 -0.171875q-0.0625 -1.109375 -0.59375 -1.671875q-0.515625 -0.578125 -1.4375 -0.578125zm11.464462 5.59375q0 -0.59375 -0.484375 -0.90625q-0.484375 -0.3125 -1.625 -0.546875q-1.125 -0.234375 -1.875 -0.609375q-1.65625 -0.796875 -1.65625 -2.3125q0 -1.28125 1.0625 -2.125q1.078125 -0.859375 2.734375 -0.859375q1.78125 0 2.859375 0.875q1.09375 0.859375 1.09375 2.265625l-2.21875 0q0 -0.640625 -0.46875 -1.0625q-0.46875 -0.421875 -1.265625 -0.421875q-0.71875 0 -1.1875 0.34375q-0.453125 0.328125 -0.453125 0.890625q0 0.515625 0.421875 0.796875q0.4375 0.28125 1.734375 0.5625q1.296875 0.28125 2.03125 0.6875q0.75 0.390625 1.109375 0.953125q0.375 0.546875 0.375 1.34375q0 1.328125 -1.109375 2.15625q-1.109375 0.828125 -2.890625 0.828125q-1.203125 0 -2.15625 -0.4375q-0.953125 -0.4375 -1.484375 -1.203125q-0.515625 -0.765625 -0.515625 -1.65625l2.140625 0q0.046875 0.78125 0.59375 1.21875q0.546875 0.421875 1.453125 0.421875q0.875 0 1.328125 -0.328125q0.453125 -0.34375 0.453125 -0.875zm9.628738 0q0 -0.59375 -0.484375 -0.90625q-0.484375 -0.3125 -1.625 -0.546875q-1.125 -0.234375 -1.875 -0.609375q-1.65625 -0.796875 -1.65625 -2.3125q0 -1.28125 1.0625 -2.125q1.078125 -0.859375 2.734375 -0.859375q1.78125 0 2.859375 0.875q1.09375 0.859375 1.09375 2.265625l-2.21875 0q0 -0.640625 -0.46875 -1.0625q-0.46875 -0.421875 -1.265625 -0.421875q-0.71875 0 -1.1875 0.34375q-0.453125 0.328125 -0.453125 0.890625q0 0.515625 0.421875 0.796875q0.4375 0.28125 1.734375 0.5625q1.296875 0.28125 2.03125 0.6875q0.75 0.390625 1.109375 0.953125q0.375 0.546875 0.375 1.34375q0 1.328125 -1.109375 2.15625q-1.109375 0.828125 -2.890625 0.828125q-1.203125 0 -2.15625 -0.4375q-0.953125 -0.4375 -1.484375 -1.203125q-0.515625 -0.765625 -0.515625 -1.65625l2.140625 0q0.046875 0.78125 0.59375 1.21875q0.546875 0.421875 1.453125 0.421875q0.875 0 1.328125 -0.328125q0.453125 -0.34375 0.453125 -0.875z" fill-rule="nonzero"/><path fill="#3d85c6" d="m153.80315 429.23096l0 0c0 -6.131653 4.970703 -11.102356 11.102371 -11.102356l111.93701 0c2.944519 0 5.768463 1.1697083 7.8505554 3.2518005c2.0820923 2.0821228 3.2518005 4.9060364 3.2518005 7.8505554l0 44.409454c0 6.1316833 -4.970703 11.102356 -11.102356 11.102356l-111.93701 0c-6.131668 0 -11.102371 -4.9706726 -11.102371 -11.102356z" fill-rule="evenodd"/><path fill="#ffffff" d="m190.62482 442.4338l0 4.921875l-2.3125 0l0 -13.265625l5.078125 0q2.21875 0 3.53125 1.15625q1.3125 1.15625 1.3125 3.0625q0 1.953125 -1.28125 3.046875q-1.28125 1.078125 -3.59375 1.078125l-2.734375 0zm0 -1.859375l2.765625 0q1.234375 0 1.875 -0.578125q0.65625 -0.578125 0.65625 -1.671875q0 -1.078125 -0.65625 -1.71875q-0.65625 -0.640625 -1.8125 -0.65625l-2.828125 0l0 4.625zm14.564957 -1.046875q-0.4375 -0.078125 -0.90625 -0.078125q-1.515625 0 -2.046875 1.171875l0 6.734375l-2.21875 0l0 -9.859375l2.125 0l0.046875 1.109375q0.796875 -1.28125 2.21875 -1.28125q0.484375 0 0.78125 0.125l0 2.078125zm0.6525879 2.8125q0 -1.453125 0.578125 -2.609375q0.578125 -1.171875 1.609375 -1.78125q1.03125 -0.625 2.390625 -0.625q1.984375 0 3.234375 1.28125q1.25 1.28125 1.34375 3.40625l0.015625 0.515625q0 1.453125 -0.5625 2.609375q-0.5625 1.140625 -1.609375 1.78125q-1.046875 0.625 -2.40625 0.625q-2.09375 0 -3.34375 -1.390625q-1.25 -1.390625 -1.25 -3.703125l0 -0.109375zm2.21875 0.1875q0 1.515625 0.625 2.390625q0.625 0.859375 1.75 0.859375q1.125 0 1.734375 -0.875q0.625 -0.875 0.625 -2.5625q0 -1.5 -0.640625 -2.375q-0.640625 -0.875 -1.734375 -0.875q-1.09375 0 -1.734375 0.859375q-0.625 0.859375 -0.625 2.578125zm12.871674 3.25q0.82810974 0 1.3749847 -0.484375q0.546875 -0.484375 0.578125 -1.203125l2.09375 0q-0.046875 0.921875 -0.59375 1.71875q-0.53125 0.796875 -1.453125 1.265625q-0.90625 0.46875 -1.9843597 0.46875q-2.0625 0 -3.28125 -1.34375q-1.203125 -1.34375 -1.203125 -3.703125l0 -0.21875q0 -2.25 1.203125 -3.59375q1.203125 -1.359375 3.28125 -1.359375q1.7499847 0 2.8593597 1.03125q1.109375 1.015625 1.171875 2.671875l-2.09375 0q-0.03125 -0.84375 -0.578125 -1.390625q-0.546875 -0.546875 -1.3749847 -0.546875q-1.078125 0 -1.671875 0.78125q-0.578125 0.78125 -0.578125 2.359375l0 0.359375q0 1.609375 0.578125 2.40625q0.578125 0.78125 1.671875 0.78125zm10.046616 1.765625q-2.09375 0 -3.40625 -1.328125q-1.3125 -1.328125 -1.3125 -3.53125l0 -0.28125q0 -1.46875 0.5625 -2.625q0.578125 -1.171875 1.609375 -1.8125q1.03125 -0.640625 2.296875 -0.640625q2.015625 0 3.109375 1.28125q1.09375 1.28125 1.09375 3.625l0 0.890625l-6.4375 0q0.109375 1.234375 0.8125 1.953125q0.71875 0.703125 1.8125 0.703125q1.515625 0 2.46875 -1.234375l1.203125 1.140625q-0.59375 0.875 -1.59375 1.375q-0.984375 0.484375 -2.21875 0.484375zm-0.265625 -8.453125q-0.90625 0 -1.46875 0.640625q-0.5625 0.640625 -0.703125 1.78125l4.203125 0l0 -0.171875q-0.0625 -1.109375 -0.59375 -1.671875q-0.515625 -0.578125 -1.4375 -0.578125zm11.464462 5.59375q0 -0.59375 -0.484375 -0.90625q-0.484375 -0.3125 -1.625 -0.546875q-1.125 -0.234375 -1.875 -0.609375q-1.65625 -0.796875 -1.65625 -2.3125q0 -1.28125 1.0625 -2.125q1.078125 -0.859375 2.734375 -0.859375q1.78125 0 2.859375 0.875q1.09375 0.859375 1.09375 2.265625l-2.21875 0q0 -0.640625 -0.46875 -1.0625q-0.46875 -0.421875 -1.265625 -0.421875q-0.71875 0 -1.1875 0.34375q-0.453125 0.328125 -0.453125 0.890625q0 0.515625 0.421875 0.796875q0.4375 0.28125 1.734375 0.5625q1.296875 0.28125 2.03125 0.6875q0.75 0.390625 1.109375 0.953125q0.375 0.546875 0.375 1.34375q0 1.328125 -1.109375 2.15625q-1.109375 0.828125 -2.890625 0.828125q-1.203125 0 -2.15625 -0.4375q-0.953125 -0.4375 -1.484375 -1.203125q-0.515625 -0.765625 -0.515625 -1.65625l2.140625 0q0.046875 0.78125 0.59375 1.21875q0.546875 0.421875 1.453125 0.421875q0.875 0 1.328125 -0.328125q0.453125 -0.34375 0.453125 -0.875zm9.628738 0q0 -0.59375 -0.484375 -0.90625q-0.484375 -0.3125 -1.625 -0.546875q-1.125 -0.234375 -1.875 -0.609375q-1.65625 -0.796875 -1.65625 -2.3125q0 -1.28125 1.0625 -2.125q1.078125 -0.859375 2.734375 -0.859375q1.78125 0 2.859375 0.875q1.09375 0.859375 1.09375 2.265625l-2.21875 0q0 -0.640625 -0.46875 -1.0625q-0.46875 -0.421875 -1.265625 -0.421875q-0.71875 0 -1.1875 0.34375q-0.453125 0.328125 -0.453125 0.890625q0 0.515625 0.421875 0.796875q0.4375 0.28125 1.734375 0.5625q1.296875 0.28125 2.03125 0.6875q0.75 0.390625 1.109375 0.953125q0.375 0.546875 0.375 1.34375q0 1.328125 -1.109375 2.15625q-1.109375 0.828125 -2.890625 0.828125q-1.203125 0 -2.15625 -0.4375q-0.953125 -0.4375 -1.484375 -1.203125q-0.515625 -0.765625 -0.515625 -1.65625l2.140625 0q0.046875 0.78125 0.59375 1.21875q0.546875 0.421875 1.453125 0.421875q0.875 0 1.328125 -0.328125q0.453125 -0.34375 0.453125 -0.875z" fill-rule="nonzero"/><path fill="#ffffff" d="m188.19678 456.09006l3.8125 10.171875l3.828125 -10.171875l2.96875 0l0 13.265625l-2.296875 0l0 -4.375l0.234375 -5.84375l-3.921875 10.21875l-1.640625 0l-3.90625 -10.21875l0.21875 5.84375l0 4.375l-2.296875 0l0 -13.265625l3.0 0zm19.005203 13.265625q-0.140625 -0.28125 -0.25 -0.921875q-1.046875 1.109375 -2.578125 1.109375q-1.484375 0 -2.4375 -0.84375q-0.9375 -0.859375 -0.9375 -2.109375q0 -1.578125 1.171875 -2.40625q1.171875 -0.84375 3.359375 -0.84375l1.359375 0l0 -0.65625q0 -0.765625 -0.4375 -1.21875q-0.421875 -0.46875 -1.296875 -0.46875q-0.765625 0 -1.25 0.390625q-0.46875 0.375 -0.46875 0.953125l-2.21875 0q0 -0.8125 0.53125 -1.515625q0.546875 -0.703125 1.46875 -1.09375q0.921875 -0.40625 2.0625 -0.40625q1.734375 0 2.75 0.875q1.03125 0.859375 1.0625 2.4375l0 4.4375q0 1.328125 0.375 2.125l0 0.15625l-2.265625 0zm-2.421875 -1.59375q0.65625 0 1.234375 -0.3125q0.578125 -0.328125 0.875 -0.859375l0 -1.859375l-1.203125 0q-1.234375 0 -1.859375 0.4375q-0.609375 0.421875 -0.609375 1.203125q0 0.640625 0.421875 1.015625q0.421875 0.375 1.140625 0.375zm8.687073 -8.265625l0.0625 1.140625q1.09375 -1.3125 2.875 -1.3125q3.078125 0 3.125 3.515625l0 6.515625l-2.203125 0l0 -6.390625q0 -0.9375 -0.40625 -1.375q-0.40625 -0.453125 -1.328125 -0.453125q-1.34375 0 -2.0 1.203125l0 7.015625l-2.203125 0l0 -9.859375l2.078125 0zm14.203827 9.859375q-0.140625 -0.28125 -0.25 -0.921875q-1.046875 1.109375 -2.578125 1.109375q-1.484375 0 -2.4375 -0.84375q-0.9375 -0.859375 -0.9375 -2.109375q0 -1.578125 1.171875 -2.40625q1.171875 -0.84375 3.359375 -0.84375l1.359375 0l0 -0.65625q0 -0.765625 -0.4375 -1.21875q-0.421875 -0.46875 -1.296875 -0.46875q-0.765625 0 -1.25 0.390625q-0.46875 0.375 -0.46875 0.953125l-2.21875 0q0 -0.8125 0.53125 -1.515625q0.546875 -0.703125 1.46875 -1.09375q0.921875 -0.40625 2.0625 -0.40625q1.734375 0 2.75 0.875q1.03125 0.859375 1.0625 2.4375l0 4.4375q0 1.328125 0.375 2.125l0 0.15625l-2.265625 0zm-2.421875 -1.59375q0.65625 0 1.234375 -0.3125q0.578125 -0.328125 0.875 -0.859375l0 -1.859375l-1.203125 0q-1.234375 0 -1.859375 0.4375q-0.609375 0.421875 -0.609375 1.203125q0 0.640625 0.421875 1.015625q0.421875 0.375 1.140625 0.375zm6.2495728 -3.40625q0 -2.296875 1.078125 -3.65625q1.078125 -1.375 2.859375 -1.375q1.6875 0 2.65625 1.171875l0.09375 -1.0l2.0 0l0 9.5625q0 1.9375 -1.21875 3.046875q-1.203125 1.125 -3.25 1.125q-1.078125 0 -2.109375 -0.453125q-1.03125 -0.4375 -1.578125 -1.171875l1.046875 -1.328125q1.03125 1.203125 2.515625 1.203125q1.109375 0 1.734375 -0.59375q0.640625 -0.59375 0.640625 -1.75l0 -0.671875q-0.953125 1.078125 -2.546875 1.078125q-1.734375 0 -2.828125 -1.375q-1.09375 -1.375 -1.09375 -3.8125zm2.203125 0.1875q0 1.484375 0.59375 2.34375q0.609375 0.84375 1.6875 0.84375q1.34375 0 1.984375 -1.140625l0 -4.34375q-0.625 -1.109375 -1.96875 -1.109375q-1.09375 0 -1.703125 0.859375q-0.59375 0.859375 -0.59375 2.546875zm13.091751 5.0q-2.09375 0 -3.40625 -1.328125q-1.3125 -1.328125 -1.3125 -3.53125l0 -0.28125q0 -1.46875 0.5625 -2.625q0.578125 -1.171875 1.609375 -1.8125q1.03125 -0.640625 2.296875 -0.640625q2.015625 0 3.109375 1.28125q1.09375 1.28125 1.09375 3.625l0 0.890625l-6.4375 0q0.109375 1.234375 0.8125 1.953125q0.71875 0.703125 1.8125 0.703125q1.515625 0 2.46875 -1.234375l1.203125 1.140625q-0.59375 0.875 -1.59375 1.375q-0.984375 0.484375 -2.21875 0.484375zm-0.265625 -8.453125q-0.90625 0 -1.46875 0.640625q-0.5625 0.640625 -0.703125 1.78125l4.203125 0l0 -0.171875q-0.0625 -1.109375 -0.59375 -1.671875q-0.515625 -0.578125 -1.4375 -0.578125zm11.105103 0.4375q-0.4375 -0.078125 -0.90625 -0.078125q-1.5156403 0 -2.0468903 1.171875l0 6.734375l-2.21875 0l0 -9.859375l2.125 0l0.046875 1.109375q0.796875 -1.28125 2.2187653 -1.28125q0.484375 0 0.78125 0.125l0 2.078125z" fill-rule="nonzero"/><path fill="#000000" fill-opacity="0.0" d="m220.87401 124.25722l0 149.19685" fill-rule="evenodd"/><path stroke="#000000" stroke-width="3.0" stroke-linejoin="round" stroke-linecap="butt" d="m220.87401 142.25722l0 113.19685" fill-rule="evenodd"/><path fill="#000000" stroke="#000000" stroke-width="3.0" stroke-linecap="butt" d="m225.82921 142.25722l-4.9552 -13.614288l-4.955185 13.614288z" fill-rule="evenodd"/><path fill="#000000" stroke="#000000" stroke-width="3.0" stroke-linecap="butt" d="m215.91882 255.45407l4.955185 13.614288l4.9552 -13.614288z" fill-rule="evenodd"/><path fill="#000000" fill-opacity="0.0" d="m220.87401 418.1286l0 -78.04724" fill-rule="evenodd"/><path stroke="#000000" stroke-width="1.0" stroke-linejoin="round" stroke-linecap="butt" d="m220.87401 418.1286l0 -78.04724" fill-rule="evenodd"/><path fill="#000000" fill-opacity="0.0" d="m224.99738 159.14436l121.35434 0l0 42.015747l-121.35434 0z" fill-rule="evenodd"/><path fill="#000000" d="m242.27863 182.64249q0 -0.875 -0.625 -1.34375q-0.609375 -0.46875 -2.21875 -0.953125q-1.59375 -0.484375 -2.546875 -1.078125q-1.8125 -1.140625 -1.8125 -2.96875q0 -1.609375 1.3125 -2.640625q1.3125 -1.046875 3.390625 -1.046875q1.390625 0 2.46875 0.515625q1.09375 0.515625 1.703125 1.453125q0.625 0.9375 0.625 2.09375l-2.296875 0q0 -1.046875 -0.65625 -1.625q-0.640625 -0.59375 -1.859375 -0.59375q-1.125 0 -1.75 0.484375q-0.625 0.484375 -0.625 1.34375q0 0.734375 0.671875 1.21875q0.671875 0.484375 2.21875 0.953125q1.546875 0.453125 2.484375 1.046875q0.9375 0.59375 1.375 1.359375q0.4375 0.75 0.4375 1.765625q0 1.65625 -1.265625 2.640625q-1.265625 0.984375 -3.453125 0.984375q-1.4375 0 -2.640625 -0.53125q-1.203125 -0.546875 -1.875 -1.484375q-0.671875 -0.9375 -0.671875 -2.1875l2.3125 0q0 1.140625 0.734375 1.765625q0.75 0.609375 2.140625 0.609375q1.203125 0 1.8125 -0.484375q0.609375 -0.484375 0.609375 -1.296875zm8.446838 3.609375q-2.09375 0 -3.40625 -1.328125q-1.3125 -1.328125 -1.3125 -3.53125l0 -0.28125q0 -1.46875 0.5625 -2.625q0.578125 -1.171875 1.609375 -1.8125q1.03125 -0.640625 2.296875 -0.640625q2.015625 0 3.109375 1.28125q1.09375 1.28125 1.09375 3.625l0 0.890625l-6.4375 0q0.109375 1.234375 0.8125 1.953125q0.71875 0.703125 1.8125 0.703125q1.515625 0 2.46875 -1.234375l1.203125 1.140625q-0.59375 0.875 -1.59375 1.375q-0.984375 0.484375 -2.21875 0.484375zm-0.265625 -8.453125q-0.90625 0 -1.46875 0.640625q-0.5625 0.640625 -0.703125 1.78125l4.203125 0l0 -0.171875q-0.0625 -1.109375 -0.59375 -1.671875q-0.515625 -0.578125 -1.4375 -0.578125zm9.995697 6.6875q0.828125 0 1.375 -0.484375q0.546875 -0.484375 0.578125 -1.203125l2.09375 0q-0.046875 0.921875 -0.59375 1.71875q-0.53125 0.796875 -1.453125 1.265625q-0.90625 0.46875 -1.984375 0.46875q-2.0625 0 -3.28125 -1.34375q-1.2031097 -1.34375 -1.2031097 -3.703125l0 -0.21875q0 -2.25 1.2031097 -3.59375q1.203125 -1.359375 3.28125 -1.359375q1.75 0 2.859375 1.03125q1.109375 1.015625 1.171875 2.671875l-2.09375 0q-0.03125 -0.84375 -0.578125 -1.390625q-0.546875 -0.546875 -1.375 -0.546875q-1.078125 0 -1.671875 0.78125q-0.578125 0.78125 -0.578125 2.359375l0 0.359375q0 1.609375 0.578125 2.40625q0.578125 0.78125 1.671875 0.78125zm11.687256 0.609375q-0.984375 1.15625 -2.765625 1.15625q-1.609375 0 -2.4375 -0.9375q-0.828125 -0.9375 -0.828125 -2.71875l0 -6.390625l2.21875 0l0 6.359375q0 1.875 1.5625 1.875q1.609375 0 2.171875 -1.15625l0 -7.078125l2.21875 0l0 9.859375l-2.09375 0l-0.046875 -0.96875zm9.554108 -6.859375q-0.4375 -0.078125 -0.90625 -0.078125q-1.515625 0 -2.046875 1.171875l0 6.734375l-2.21875 0l0 -9.859375l2.125 0l0.046875 1.109375q0.796875 -1.28125 2.21875 -1.28125q0.484375 0 0.78125 0.125l0 2.078125zm5.557556 8.015625q-2.09375 0 -3.40625 -1.328125q-1.3125 -1.328125 -1.3125 -3.53125l0 -0.28125q0 -1.46875 0.5625 -2.625q0.578125 -1.171875 1.609375 -1.8125q1.03125 -0.640625 2.296875 -0.640625q2.015625 0 3.109375 1.28125q1.09375 1.28125 1.09375 3.625l0 0.890625l-6.4375 0q0.109375 1.234375 0.8125 1.953125q0.71875 0.703125 1.8125 0.703125q1.515625 0 2.46875 -1.234375l1.203125 1.140625q-0.59375 0.875 -1.59375 1.375q-0.984375 0.484375 -2.21875 0.484375zm-0.265625 -8.453125q-0.90625 0 -1.46875 0.640625q-0.5625 0.640625 -0.703125 1.78125l4.203125 0l0 -0.171875q-0.0625 -1.109375 -0.59375 -1.671875q-0.515625 -0.578125 -1.4375 -0.578125zm13.235291 8.265625l-2.296875 0l0 -13.265625l2.296875 0l0 13.265625zm5.1402893 -4.921875l0 4.921875l-2.3125 0l0 -13.265625l5.078125 0q2.21875 0 3.53125 1.15625q1.3125 1.15625 1.3125 3.0625q0 1.953125 -1.28125 3.046875q-1.28125 1.078125 -3.59375 1.078125l-2.734375 0zm0 -1.859375l2.765625 0q1.234375 0 1.875 -0.578125q0.65625 -0.578125 0.65625 -1.671875q0 -1.078125 -0.65625 -1.71875q-0.65625 -0.640625 -1.8125 -0.65625l-2.828125 0l0 4.625zm19.736847 2.46875q-0.203125 2.109375 -1.578125 3.3125q-1.359375 1.1875 -3.625 1.1875q-1.578125 0 -2.796875 -0.75q-1.203125 -0.765625 -1.859375 -2.140625q-0.65625 -1.390625 -0.6875 -3.21875l0 -1.234375q0 -1.875 0.671875 -3.296875q0.671875 -1.4375 1.90625 -2.21875q1.25 -0.78125 2.875 -0.78125q2.203125 0 3.53125 1.203125q1.34375 1.1875 1.5625 3.375l-2.296875 0q-0.15625 -1.4375 -0.828125 -2.0625q-0.671875 -0.640625 -1.96875 -0.640625q-1.5 0 -2.3125 1.109375q-0.796875 1.09375 -0.8125 3.203125l0 1.1875q0 2.140625 0.765625 3.28125q0.765625 1.125 2.25 1.125q1.359375 0 2.03125 -0.609375q0.6875 -0.609375 0.875 -2.03125l2.296875 0z" fill-rule="nonzero"/><path fill="#fce5cd" d="m371.90027 235.3727l521.98425 0l0 287.4646l-521.98425 0z" fill-rule="evenodd"/><path stroke="#000000" stroke-width="1.0" stroke-linejoin="round" stroke-linecap="butt" stroke-dasharray="4.0,3.0" d="m371.90027 235.3727l521.98425 0l0 287.4646l-521.98425 0z" fill-rule="evenodd"/><path fill="#3d85c6" d="m409.7743 284.56168l0 0c0 -6.131653 4.9706726 -11.102356 11.102356 -11.102356l111.93701 0c2.944519 0 5.7684326 1.1697083 7.850525 3.2518005c2.0820923 2.0820923 3.251831 4.9060364 3.251831 7.8505554l0 44.409454c0 6.131653 -4.970703 11.102356 -11.102356 11.102356l-111.93701 0c-6.1316833 0 -11.102356 -4.970703 -11.102356 -11.102356z" fill-rule="evenodd"/><path fill="#ffffff" d="m430.82477 313.6864l-2.296875 0l0 -13.265625l2.296875 0l0 13.265625zm5.1402893 -4.921875l0 4.921875l-2.3125 0l0 -13.265625l5.078125 0q2.21875 0 3.53125 1.15625q1.3125 1.15625 1.3125 3.0625q0 1.953125 -1.28125 3.046875q-1.28125 1.078125 -3.59375 1.078125l-2.734375 0zm0 -1.859375l2.765625 0q1.234375 0 1.875 -0.578125q0.65625 -0.578125 0.65625 -1.671875q0 -1.078125 -0.65625 -1.71875q-0.65625 -0.640625 -1.8125 -0.65625l-2.828125 0l0 4.625zm19.736847 2.46875q-0.203125 2.109375 -1.578125 3.3125q-1.359375 1.1875 -3.625 1.1875q-1.578125 0 -2.796875 -0.75q-1.203125 -0.765625 -1.859375 -2.140625q-0.65625 -1.390625 -0.6875 -3.21875l0 -1.234375q0 -1.875 0.671875 -3.296875q0.671875 -1.4375 1.90625 -2.21875q1.25 -0.78125 2.875 -0.78125q2.203125 0 3.53125 1.203125q1.34375 1.1875 1.5625 3.375l-2.296875 0q-0.15625 -1.4375 -0.828125 -2.0625q-0.671875 -0.640625 -1.96875 -0.640625q-1.5 0 -2.3125 1.109375q-0.796875 1.09375 -0.8125 3.203125l0 1.1875q0 2.140625 0.765625 3.28125q0.765625 1.125 2.25 1.125q1.359375 0 2.03125 -0.609375q0.6875 -0.609375 0.875 -2.03125l2.296875 0zm17.231476 4.3125l-2.296875 0l0 -5.890625l-5.921875 0l0 5.890625l-2.3125 0l0 -13.265625l2.3125 0l0 5.515625l5.921875 0l0 -5.515625l2.296875 0l0 13.265625zm8.3949585 0q-0.140625 -0.28125 -0.25 -0.921875q-1.046875 1.109375 -2.578125 1.109375q-1.484375 0 -2.4375 -0.84375q-0.9375 -0.859375 -0.9375 -2.109375q0 -1.578125 1.171875 -2.40625q1.171875 -0.84375 3.359375 -0.84375l1.359375 0l0 -0.65625q0 -0.765625 -0.4375 -1.21875q-0.421875 -0.46875 -1.296875 -0.46875q-0.765625 0 -1.25 0.390625q-0.46875 0.375 -0.46875 0.953125l-2.21875 0q0 -0.8125 0.53125 -1.515625q0.546875 -0.703125 1.46875 -1.09375q0.921875 -0.40625 2.0625 -0.40625q1.734375 0 2.75 0.875q1.03125 0.859375 1.0625 2.4375l0 4.4375q0 1.328125 0.375 2.125l0 0.15625l-2.265625 0zm-2.421875 -1.59375q0.65625 0 1.234375 -0.3125q0.578125 -0.328125 0.875 -0.859375l0 -1.859375l-1.203125 0q-1.234375 0 -1.859375 0.4375q-0.609375 0.421875 -0.609375 1.203125q0 0.640625 0.421875 1.015625q0.421875 0.375 1.140625 0.375zm8.687073 -8.265625l0.0625 1.140625q1.09375 -1.3125 2.875 -1.3125q3.078125 0 3.125 3.515625l0 6.515625l-2.203125 0l0 -6.390625q0 -0.9375 -0.40625 -1.375q-0.40625 -0.453125 -1.328125 -0.453125q-1.34375 0 -2.0 1.203125l0 7.015625l-2.203125 0l0 -9.859375l2.078125 0zm7.906952 4.859375q0 -2.28125 1.046875 -3.65625q1.0625 -1.375 2.84375 -1.375q1.5625 0 2.53125 1.078125l0 -5.046875l2.21875 0l0 14.0l-2.015625 0l-0.109375 -1.015625q-0.984375 1.203125 -2.640625 1.203125q-1.734375 0 -2.8125 -1.390625q-1.0625 -1.40625 -1.0625 -3.796875zm2.21875 0.1875q0 1.5 0.578125 2.34375q0.578125 0.84375 1.640625 0.84375q1.359375 0 1.984375 -1.203125l0 -4.21875q-0.609375 -1.171875 -1.96875 -1.171875q-1.078125 0 -1.65625 0.859375q-0.578125 0.84375 -0.578125 2.546875zm11.077454 4.8125l-2.203125 0l0 -14.0l2.203125 0l0 14.0zm6.748657 0.1875q-2.09375 0 -3.40625 -1.328125q-1.3125 -1.328125 -1.3125 -3.53125l0 -0.28125q0 -1.46875 0.5625 -2.625q0.578125 -1.171875 1.609375 -1.8125q1.03125 -0.640625 2.296875 -0.640625q2.015625 0 3.109375 1.28125q1.09375 1.28125 1.09375 3.625l0 0.890625l-6.4375 0q0.109375 1.234375 0.8125 1.953125q0.71875 0.703125 1.8125 0.703125q1.515625 0 2.46875 -1.234375l1.203125 1.140625q-0.59375 0.875 -1.59375 1.375q-0.984375 0.484375 -2.21875 0.484375zm-0.265625 -8.453125q-0.90625 0 -1.46875 0.640625q-0.5625 0.640625 -0.703125 1.78125l4.203125 0l0 -0.171875q-0.0625 -1.109375 -0.59375 -1.671875q-0.515625 -0.578125 -1.4375 -0.578125zm11.105103 0.4375q-0.4375 -0.078125 -0.90625 -0.078125q-1.515625 0 -2.046875 1.171875l0 6.734375l-2.21875 0l0 -9.859375l2.125 0l0.046875 1.109375q0.796875 -1.28125 2.21875 -1.28125q0.484375 0 0.78125 0.125l0 2.078125z" fill-rule="nonzero"/><path fill="#3d85c6" d="m580.4199 284.56168l0 0c0 -6.131653 4.970703 -11.102356 11.102417 -11.102356l111.93695 0c2.94458 0 5.7684937 1.1697083 7.850586 3.2518005c2.0820923 2.0820923 3.251831 4.9060364 3.251831 7.8505554l0 44.409454c0 6.131653 -4.970703 11.102356 -11.102417 11.102356l-111.93695 0c-6.131714 0 -11.102417 -4.970703 -11.102417 -11.102356z" fill-rule="evenodd"/><path fill="#ffffff" d="m633.6128 296.95203l-1.5 1.59375l0 4.140625l-2.3125 0l0 -13.265625l2.3125 0l0 6.21875l1.265625 -1.578125l3.890625 -4.640625l2.78125 0l-4.921875 5.875l5.203125 7.390625l-2.734375 0l-3.984375 -5.734375zm13.61969 5.734375q-0.140625 -0.28125 -0.25 -0.921875q-1.046875 1.109375 -2.578125 1.109375q-1.484375 0 -2.4375 -0.84375q-0.9375 -0.859375 -0.9375 -2.109375q0 -1.578125 1.171875 -2.40625q1.171875 -0.84375 3.359375 -0.84375l1.359375 0l0 -0.65625q0 -0.765625 -0.4375 -1.21875q-0.421875 -0.46875 -1.296875 -0.46875q-0.765625 0 -1.25 0.390625q-0.46875 0.375 -0.46875 0.953125l-2.21875 0q0 -0.8125 0.53125 -1.515625q0.546875 -0.703125 1.46875 -1.09375q0.921875 -0.40625 2.0625 -0.40625q1.734375 0 2.75 0.875q1.03125 0.859375 1.0625 2.4375l0 4.4375q0 1.328125 0.375 2.125l0 0.15625l-2.265625 0zm-2.421875 -1.59375q0.65625 0 1.234375 -0.3125q0.578125 -0.328125 0.875 -0.859375l0 -1.859375l-1.203125 0q-1.234375 0 -1.859375 0.4375q-0.609375 0.421875 -0.609375 1.203125q0 0.640625 0.421875 1.015625q0.421875 0.375 1.140625 0.375zm9.405823 -10.65625l0 2.390625l1.734375 0l0 1.640625l-1.734375 0l0 5.5q0 0.5625 0.21875 0.8125q0.234375 0.25 0.796875 0.25q0.390625 0 0.78125 -0.078125l0 1.703125q-0.75 0.21875 -1.453125 0.21875q-2.5625 0 -2.5625 -2.8125l0 -5.59375l-1.609375 0l0 -1.640625l1.609375 0l0 -2.390625l2.21875 0zm7.7661133 12.4375q-2.09375 0 -3.40625 -1.328125q-1.3125 -1.328125 -1.3125 -3.53125l0 -0.28125q0 -1.46875 0.5625 -2.625q0.578125 -1.171875 1.609375 -1.8125q1.03125 -0.640625 2.296875 -0.640625q2.015625 0 3.109375 1.28125q1.09375 1.28125 1.09375 3.625l0 0.890625l-6.4375 0q0.109375 1.234375 0.8125 1.953125q0.71875 0.703125 1.8125 0.703125q1.515625 0 2.46875 -1.234375l1.203125 1.140625q-0.59375 0.875 -1.59375 1.375q-0.984375 0.484375 -2.21875 0.484375zm-0.265625 -8.453125q-0.90625 0 -1.46875 0.640625q-0.5625 0.640625 -0.703125 1.78125l4.203125 0l0 -0.171875q-0.0625 -1.109375 -0.59375 -1.671875q-0.515625 -0.578125 -1.4375 -0.578125z" fill-rule="nonzero"/><path fill="#ffffff" d="m607.4216 319.76453l0 4.921875l-2.3125 0l0 -13.265625l5.078125 0q2.21875 0 3.53125 1.15625q1.3125 1.15625 1.3125 3.0625q0 1.953125 -1.28125 3.046875q-1.28125 1.078125 -3.59375 1.078125l-2.734375 0zm0 -1.859375l2.765625 0q1.234375 0 1.875 -0.578125q0.65625 -0.578125 0.65625 -1.671875q0 -1.078125 -0.65625 -1.71875q-0.65625 -0.640625 -1.8125 -0.65625l-2.828125 0l0 4.625zm14.564941 -1.046875q-0.4375 -0.078125 -0.90625 -0.078125q-1.515625 0 -2.046875 1.171875l0 6.734375l-2.21875 0l0 -9.859375l2.125 0l0.046875 1.109375q0.796875 -1.28125 2.21875 -1.28125q0.484375 0 0.78125 0.125l0 2.078125zm0.6525879 2.8125q0 -1.453125 0.578125 -2.609375q0.578125 -1.171875 1.609375 -1.78125q1.03125 -0.625 2.390625 -0.625q1.984375 0 3.234375 1.28125q1.25 1.28125 1.34375 3.40625l0.015625 0.515625q0 1.453125 -0.5625 2.609375q-0.5625 1.140625 -1.609375 1.78125q-1.046875 0.625 -2.40625 0.625q-2.09375 0 -3.34375 -1.390625q-1.25 -1.390625 -1.25 -3.703125l0 -0.109375zm2.21875 0.1875q0 1.515625 0.625 2.390625q0.625 0.859375 1.75 0.859375q1.125 0 1.734375 -0.875q0.625 -0.875 0.625 -2.5625q0 -1.5 -0.640625 -2.375q-0.640625 -0.875 -1.734375 -0.875q-1.09375 0 -1.734375 0.859375q-0.625 0.859375 -0.625 2.578125zm12.871704 3.25q0.828125 0 1.375 -0.484375q0.546875 -0.484375 0.578125 -1.203125l2.09375 0q-0.046875 0.921875 -0.59375 1.71875q-0.53125 0.796875 -1.453125 1.265625q-0.90625 0.46875 -1.984375 0.46875q-2.0625 0 -3.28125 -1.34375q-1.203125 -1.34375 -1.203125 -3.703125l0 -0.21875q0 -2.25 1.203125 -3.59375q1.203125 -1.359375 3.28125 -1.359375q1.75 0 2.859375 1.03125q1.109375 1.015625 1.171875 2.671875l-2.09375 0q-0.03125 -0.84375 -0.578125 -1.390625q-0.546875 -0.546875 -1.375 -0.546875q-1.078125 0 -1.671875 0.78125q-0.578125 0.78125 -0.578125 2.359375l0 0.359375q0 1.609375 0.578125 2.40625q0.578125 0.78125 1.671875 0.78125zm10.046631 1.765625q-2.09375 0 -3.40625 -1.328125q-1.3125 -1.328125 -1.3125 -3.53125l0 -0.28125q0 -1.46875 0.5625 -2.625q0.578125 -1.171875 1.609375 -1.8125q1.03125 -0.640625 2.296875 -0.640625q2.015625 0 3.109375 1.28125q1.09375 1.28125 1.09375 3.625l0 0.890625l-6.4375 0q0.109375 1.234375 0.8125 1.953125q0.71875 0.703125 1.8125 0.703125q1.515625 0 2.46875 -1.234375l1.203125 1.140625q-0.59375 0.875 -1.59375 1.375q-0.984375 0.484375 -2.21875 0.484375zm-0.265625 -8.453125q-0.90625 0 -1.46875 0.640625q-0.5625 0.640625 -0.703125 1.78125l4.203125 0l0 -0.171875q-0.0625 -1.109375 -0.59375 -1.671875q-0.515625 -0.578125 -1.4375 -0.578125zm11.4644165 5.59375q0 -0.59375 -0.484375 -0.90625q-0.484375 -0.3125 -1.625 -0.546875q-1.125 -0.234375 -1.875 -0.609375q-1.65625 -0.796875 -1.65625 -2.3125q0 -1.28125 1.0625 -2.125q1.078125 -0.859375 2.734375 -0.859375q1.78125 0 2.859375 0.875q1.09375 0.859375 1.09375 2.265625l-2.21875 0q0 -0.640625 -0.46875 -1.0625q-0.46875 -0.421875 -1.265625 -0.421875q-0.71875 0 -1.1875 0.34375q-0.453125 0.328125 -0.453125 0.890625q0 0.515625 0.421875 0.796875q0.4375 0.28125 1.734375 0.5625q1.296875 0.28125 2.03125 0.6875q0.75 0.390625 1.109375 0.953125q0.375 0.546875 0.375 1.34375q0 1.328125 -1.109375 2.15625q-1.109375 0.828125 -2.890625 0.828125q-1.203125 0 -2.15625 -0.4375q-0.953125 -0.4375 -1.484375 -1.203125q-0.515625 -0.765625 -0.515625 -1.65625l2.140625 0q0.046875 0.78125 0.59375 1.21875q0.546875 0.421875 1.453125 0.421875q0.875 0 1.328125 -0.328125q0.453125 -0.34375 0.453125 -0.875zm9.628784 0q0 -0.59375 -0.484375 -0.90625q-0.484375 -0.3125 -1.625 -0.546875q-1.125 -0.234375 -1.875 -0.609375q-1.65625 -0.796875 -1.65625 -2.3125q0 -1.28125 1.0625 -2.125q1.078125 -0.859375 2.734375 -0.859375q1.78125 0 2.859375 0.875q1.09375 0.859375 1.09375 2.265625l-2.21875 0q0 -0.640625 -0.46875 -1.0625q-0.46875 -0.421875 -1.265625 -0.421875q-0.71875 0 -1.1875 0.34375q-0.453125 0.328125 -0.453125 0.890625q0 0.515625 0.421875 0.796875q0.4375 0.28125 1.734375 0.5625q1.296875 0.28125 2.03125 0.6875q0.75 0.390625 1.109375 0.953125q0.375 0.546875 0.375 1.34375q0 1.328125 -1.109375 2.15625q-1.109375 0.828125 -2.890625 0.828125q-1.203125 0 -2.15625 -0.4375q-0.953125 -0.4375 -1.484375 -1.203125q-0.515625 -0.765625 -0.515625 -1.65625l2.140625 0q0.046875 0.78125 0.59375 1.21875q0.546875 0.421875 1.453125 0.421875q0.875 0 1.328125 -0.328125q0.453125 -0.34375 0.453125 -0.875zm8.441223 2.859375q-2.09375 0 -3.40625 -1.328125q-1.3125 -1.328125 -1.3125 -3.53125l0 -0.28125q0 -1.46875 0.5625 -2.625q0.578125 -1.171875 1.609375 -1.8125q1.03125 -0.640625 2.296875 -0.640625q2.015625 0 3.109375 1.28125q1.09375 1.28125 1.09375 3.625l0 0.890625l-6.4375 0q0.109375 1.234375 0.8125 1.953125q0.71875 0.703125 1.8125 0.703125q1.515625 0 2.46875 -1.234375l1.203125 1.140625q-0.59375 0.875 -1.59375 1.375q-0.984375 0.484375 -2.21875 0.484375zm-0.265625 -8.453125q-0.90625 0 -1.46875 0.640625q-0.5625 0.640625 -0.703125 1.78125l4.203125 0l0 -0.171875q-0.0625 -1.109375 -0.59375 -1.671875q-0.515625 -0.578125 -1.4375 -0.578125zm11.464478 5.59375q0 -0.59375 -0.484375 -0.90625q-0.484375 -0.3125 -1.625 -0.546875q-1.125 -0.234375 -1.875 -0.609375q-1.65625 -0.796875 -1.65625 -2.3125q0 -1.28125 1.0625 -2.125q1.078125 -0.859375 2.734375 -0.859375q1.78125 0 2.859375 0.875q1.09375 0.859375 1.09375 2.265625l-2.21875 0q0 -0.640625 -0.46875 -1.0625q-0.46875 -0.421875 -1.265625 -0.421875q-0.71875 0 -1.1875 0.34375q-0.453125 0.328125 -0.453125 0.890625q0 0.515625 0.421875 0.796875q0.4375 0.28125 1.734375 0.5625q1.296875 0.28125 2.03125 0.6875q0.75 0.390625 1.109375 0.953125q0.375 0.546875 0.375 1.34375q0 1.328125 -1.109375 2.15625q-1.109375 0.828125 -2.890625 0.828125q-1.203125 0 -2.15625 -0.4375q-0.953125 -0.4375 -1.484375 -1.203125q-0.515625 -0.765625 -0.515625 -1.65625l2.140625 0q0.046875 0.78125 0.59375 1.21875q0.546875 0.421875 1.453125 0.421875q0.875 0 1.328125 -0.328125q0.453125 -0.34375 0.453125 -0.875z" fill-rule="nonzero"/><path fill="#000000" fill-opacity="0.0" d="m98.13911 529.43304l73.00788 0l0 42.015747l-73.00788 0z" fill-rule="evenodd"/><path fill="#000000" d="m112.29536 550.6187l-1.5 1.59375l0 4.140625l-2.3125 0l0 -13.265625l2.3125 0l0 6.21875l1.265625 -1.578125l3.890625 -4.640625l2.78125 0l-4.921875 5.875l5.203125 7.390625l-2.734375 0l-3.984375 -5.734375zm11.835876 5.921875q-2.09375 0 -3.40625 -1.328125q-1.3125 -1.328125 -1.3125 -3.53125l0 -0.28125q0 -1.46875 0.5625 -2.625q0.578125 -1.171875 1.609375 -1.8125q1.03125 -0.640625 2.296875 -0.640625q2.015625 0 3.109375 1.28125q1.0937576 1.28125 1.0937576 3.625l0 0.890625l-6.4375076 0q0.109375 1.234375 0.8125 1.953125q0.71875 0.703125 1.8125 0.703125q1.515625 0 2.46875 -1.234375l1.203125 1.140625q-0.59375 0.875 -1.59375 1.375q-0.984375 0.484375 -2.21875 0.484375zm-0.265625 -8.453125q-0.90625 0 -1.46875 0.640625q-0.5625 0.640625 -0.703125 1.78125l4.203125 0l0 -0.171875q-0.0625 -1.109375 -0.59375 -1.671875q-0.515625 -0.578125 -1.4375 -0.578125zm11.105095 0.4375q-0.4375 -0.078125 -0.90625 -0.078125q-1.515625 0 -2.046875 1.171875l0 6.734375l-2.21875 0l0 -9.859375l2.125 0l0.046875 1.109375q0.796875 -1.28125 2.21875 -1.28125q0.484375 0 0.78125 0.125l0 2.078125zm3.449463 -2.03125l0.0625 1.140625q1.09375 -1.3125 2.875 -1.3125q3.078125 0 3.125 3.515625l0 6.515625l-2.203125 0l0 -6.390625q0 -0.9375 -0.40625 -1.375q-0.40625 -0.453125 -1.328125 -0.453125q-1.34375 0 -2.0 1.203125l0 7.015625l-2.203125 0l0 -9.859375l2.078125 0zm12.656967 10.046875q-2.09375 0 -3.40625 -1.328125q-1.3125 -1.328125 -1.3125 -3.53125l0 -0.28125q0 -1.46875 0.5625 -2.625q0.578125 -1.171875 1.609375 -1.8125q1.03125 -0.640625 2.296875 -0.640625q2.015625 0 3.109375 1.28125q1.09375 1.28125 1.09375 3.625l0 0.890625l-6.4375 0q0.109375 1.234375 0.8125 1.953125q0.71875 0.703125 1.8125 0.703125q1.515625 0 2.46875 -1.234375l1.203125 1.140625q-0.59375 0.875 -1.59375 1.375q-0.984375 0.484375 -2.21875 0.484375zm-0.265625 -8.453125q-0.90625 0 -1.46875 0.640625q-0.5625 0.640625 -0.703125 1.78125l4.203125 0l0 -0.171875q-0.0625 -1.109375 -0.59375 -1.671875q-0.515625 -0.578125 -1.4375 -0.578125zm8.292587 8.265625l-2.203125 0l0 -14.0l2.203125 0l0 14.0z" fill-rule="nonzero"/><path fill="#000000" fill-opacity="0.0" d="m371.90027 529.43304l134.14172 0l0 42.015747l-134.14172 0z" fill-rule="evenodd"/><path fill="#000000" d="m391.83777 544.94684l-4.140625 0l0 11.40625l-2.28125 0l0 -11.40625l-4.109375 0l0 -1.859375l10.53125 0l0 1.859375zm6.090027 3.578125q-0.4375 -0.078125 -0.90625 -0.078125q-1.515625 0 -2.046875 1.171875l0 6.734375l-2.21875 0l0 -9.859375l2.125 0l0.046875 1.109375q0.796875 -1.28125 2.21875 -1.28125q0.484375 0 0.78125 0.125l0 2.078125zm7.371338 6.859375q-0.984375 1.15625 -2.765625 1.15625q-1.609375 0 -2.4375 -0.9375q-0.828125 -0.9375 -0.828125 -2.71875l0 -6.390625l2.21875 0l0 6.359375q0 1.875 1.5625 1.875q1.609375 0 2.171875 -1.15625l0 -7.078125l2.21875 0l0 9.859375l-2.09375 0l-0.046875 -0.96875zm9.913483 -1.703125q0 -0.59375 -0.484375 -0.90625q-0.484375 -0.3125 -1.625 -0.546875q-1.125 -0.234375 -1.875 -0.609375q-1.65625 -0.796875 -1.65625 -2.3125q0 -1.28125 1.0625 -2.125q1.078125 -0.859375 2.734375 -0.859375q1.78125 0 2.859375 0.875q1.09375 0.859375 1.09375 2.265625l-2.21875 0q0 -0.640625 -0.46875 -1.0625q-0.46875 -0.421875 -1.265625 -0.421875q-0.71875 0 -1.1875 0.34375q-0.453125 0.328125 -0.453125 0.890625q0 0.515625 0.421875 0.796875q0.4375 0.28125 1.734375 0.5625q1.296875 0.28125 2.03125 0.6875q0.75 0.390625 1.109375 0.953125q0.375 0.546875 0.375 1.34375q0 1.328125 -1.109375 2.15625q-1.109375 0.828125 -2.890625 0.828125q-1.203125 0 -2.15625 -0.4375q-0.953125 -0.4375 -1.484375 -1.203125q-0.515625 -0.765625 -0.515625 -1.65625l2.140625 0q0.046875 0.78125 0.59375 1.21875q0.546875 0.421875 1.453125 0.421875q0.875 0 1.328125 -0.328125q0.453125 -0.34375 0.453125 -0.875zm6.878723 -9.578125l0 2.390625l1.734375 0l0 1.640625l-1.734375 0l0 5.5q0 0.5625 0.21875 0.8125q0.234375 0.25 0.796875 0.25q0.390625 0 0.78125 -0.078125l0 1.703125q-0.75 0.21875 -1.453125 0.21875q-2.5625 0 -2.5625 -2.8125l0 -5.59375l-1.609375 0l0 -1.640625l1.609375 0l0 -2.390625l2.21875 0zm7.766083 12.4375q-2.09375 0 -3.40625 -1.328125q-1.3125 -1.328125 -1.3125 -3.53125l0 -0.28125q0 -1.46875 0.5625 -2.625q0.578125 -1.171875 1.609375 -1.8125q1.03125 -0.640625 2.296875 -0.640625q2.015625 0 3.109375 1.28125q1.09375 1.28125 1.09375 3.625l0 0.890625l-6.4375 0q0.109375 1.234375 0.8125 1.953125q0.71875 0.703125 1.8125 0.703125q1.515625 0 2.46875 -1.234375l1.203125 1.140625q-0.59375 0.875 -1.59375 1.375q-0.984375 0.484375 -2.21875 0.484375zm-0.265625 -8.453125q-0.90625 0 -1.46875 0.640625q-0.5625 0.640625 -0.703125 1.78125l4.203125 0l0 -0.171875q-0.0625 -1.109375 -0.59375 -1.671875q-0.515625 -0.578125 -1.4375 -0.578125zm5.526947 3.265625q0 -2.28125 1.046875 -3.65625q1.0625 -1.375 2.84375 -1.375q1.5625 0 2.53125 1.078125l0 -5.046875l2.21875 0l0 14.0l-2.015625 0l-0.109375 -1.015625q-0.984375 1.203125 -2.640625 1.203125q-1.734375 0 -2.8125 -1.390625q-1.0625 -1.40625 -1.0625 -3.796875zm2.21875 0.1875q0 1.5 0.578125 2.34375q0.578125 0.84375 1.640625 0.84375q1.359375 0 1.984375 -1.203125l0 -4.21875q-0.609375 -1.171875 -1.96875 -1.171875q-1.078125 0 -1.65625 0.859375q-0.578125 0.84375 -0.578125 2.546875zm15.723297 4.8125l-2.203125 0l0 -14.0l2.203125 0l0 14.0zm8.295532 0q-0.140625 -0.28125 -0.25 -0.921875q-1.046875 1.109375 -2.578125 1.109375q-1.484375 0 -2.4375 -0.84375q-0.9375 -0.859375 -0.9375 -2.109375q0 -1.578125 1.171875 -2.40625q1.171875 -0.84375 3.359375 -0.84375l1.359375 0l0 -0.65625q0 -0.765625 -0.4375 -1.21875q-0.421875 -0.46875 -1.296875 -0.46875q-0.765625 0 -1.25 0.390625q-0.46875 0.375 -0.46875 0.953125l-2.21875 0q0 -0.8125 0.53125 -1.515625q0.546875 -0.703125 1.46875 -1.09375q0.921875 -0.40625 2.0625 -0.40625q1.734375 0 2.75 0.875q1.03125 0.859375 1.0625 2.4375l0 4.4375q0 1.328125 0.375 2.125l0 0.15625l-2.265625 0zm-2.421875 -1.59375q0.65625 0 1.234375 -0.3125q0.578125 -0.328125 0.875 -0.859375l0 -1.859375l-1.203125 0q-1.234375 0 -1.859375 0.4375q-0.609375 0.421875 -0.609375 1.203125q0 0.640625 0.421875 1.015625q0.421875 0.375 1.140625 0.375zm9.940979 -1.578125l2.015625 -6.6875l2.359375 0l-3.921875 11.359375q-0.90625 2.484375 -3.0625 2.484375q-0.484375 0 -1.0625 -0.171875l0 -1.703125l0.421875 0.015625q0.828125 0 1.25 -0.3125q0.421875 -0.296875 0.671875 -1.015625l0.328125 -0.84375l-3.46875 -9.8125l2.390625 0l2.078125 6.6875zm9.854309 3.359375q-2.09375 0 -3.40625 -1.328125q-1.3125 -1.328125 -1.3125 -3.53125l0 -0.28125q0 -1.46875 0.5625 -2.625q0.578125 -1.171875 1.609375 -1.8125q1.03125 -0.640625 2.296875 -0.640625q2.015625 0 3.109375 1.28125q1.09375 1.28125 1.09375 3.625l0 0.890625l-6.4375 0q0.109375 1.234375 0.8125 1.953125q0.71875 0.703125 1.8125 0.703125q1.515625 0 2.46875 -1.234375l1.203125 1.140625q-0.59375 0.875 -1.59375 1.375q-0.984375 0.484375 -2.21875 0.484375zm-0.265625 -8.453125q-0.90625 0 -1.46875 0.640625q-0.5625 0.640625 -0.703125 1.78125l4.203125 0l0 -0.171875q-0.0625 -1.109375 -0.59375 -1.671875q-0.515625 -0.578125 -1.4375 -0.578125zm11.105072 0.4375q-0.4375 -0.078125 -0.90625 -0.078125q-1.515625 0 -2.046875 1.171875l0 6.734375l-2.21875 0l0 -9.859375l2.125 0l0.046875 1.109375q0.796875 -1.28125 2.21875 -1.28125q0.484375 0 0.78125 0.125l0 2.078125z" fill-rule="nonzero"/><path fill="#3d85c6" d="m409.7743 400.02887l0 0c0 -6.131653 4.9706726 -11.102356 11.102356 -11.102356l111.93701 0c2.944519 0 5.7684326 1.1697083 7.850525 3.2518005c2.0820923 2.0820923 3.251831 4.9060364 3.251831 7.8505554l0 44.409454c0 6.131653 -4.970703 11.102356 -11.102356 11.102356l-111.93701 0c-6.1316833 0 -11.102356 -4.970703 -11.102356 -11.102356z" fill-rule="evenodd"/><path fill="#ffffff" d="m446.59595 413.23172l0 4.921875l-2.3125 0l0 -13.265625l5.078125 0q2.21875 0 3.53125 1.15625q1.3125 1.15625 1.3125 3.0625q0 1.953125 -1.28125 3.046875q-1.28125 1.078125 -3.59375 1.078125l-2.734375 0zm0 -1.859375l2.765625 0q1.234375 0 1.875 -0.578125q0.65625 -0.578125 0.65625 -1.671875q0 -1.078125 -0.65625 -1.71875q-0.65625 -0.640625 -1.8125 -0.65625l-2.828125 0l0 4.625zm14.564941 -1.046875q-0.4375 -0.078125 -0.90625 -0.078125q-1.515625 0 -2.046875 1.171875l0 6.734375l-2.21875 0l0 -9.859375l2.125 0l0.046875 1.109375q0.796875 -1.28125 2.21875 -1.28125q0.484375 0 0.78125 0.125l0 2.078125zm0.6525879 2.8125q0 -1.453125 0.578125 -2.609375q0.578125 -1.171875 1.609375 -1.78125q1.03125 -0.625 2.390625 -0.625q1.984375 0 3.234375 1.28125q1.25 1.28125 1.34375 3.40625l0.015625 0.515625q0 1.453125 -0.5625 2.609375q-0.5625 1.140625 -1.609375 1.78125q-1.046875 0.625 -2.40625 0.625q-2.09375 0 -3.34375 -1.390625q-1.25 -1.390625 -1.25 -3.703125l0 -0.109375zm2.21875 0.1875q0 1.515625 0.625 2.390625q0.625 0.859375 1.75 0.859375q1.125 0 1.734375 -0.875q0.625 -0.875 0.625 -2.5625q0 -1.5 -0.640625 -2.375q-0.640625 -0.875 -1.734375 -0.875q-1.09375 0 -1.734375 0.859375q-0.625 0.859375 -0.625 2.578125zm12.871674 3.25q0.828125 0 1.375 -0.484375q0.546875 -0.484375 0.578125 -1.203125l2.09375 0q-0.046875 0.921875 -0.59375 1.71875q-0.53125 0.796875 -1.453125 1.265625q-0.90625 0.46875 -1.984375 0.46875q-2.0625 0 -3.28125 -1.34375q-1.203125 -1.34375 -1.203125 -3.703125l0 -0.21875q0 -2.25 1.203125 -3.59375q1.203125 -1.359375 3.28125 -1.359375q1.75 0 2.859375 1.03125q1.109375 1.015625 1.171875 2.671875l-2.09375 0q-0.03125 -0.84375 -0.578125 -1.390625q-0.546875 -0.546875 -1.375 -0.546875q-1.078125 0 -1.671875 0.78125q-0.578125 0.78125 -0.578125 2.359375l0 0.359375q0 1.609375 0.578125 2.40625q0.578125 0.78125 1.671875 0.78125zm10.046631 1.765625q-2.09375 0 -3.40625 -1.328125q-1.3125 -1.328125 -1.3125 -3.53125l0 -0.28125q0 -1.46875 0.5625 -2.625q0.578125 -1.171875 1.609375 -1.8125q1.03125 -0.640625 2.296875 -0.640625q2.015625 0 3.109375 1.28125q1.09375 1.28125 1.09375 3.625l0 0.890625l-6.4375 0q0.109375 1.234375 0.8125 1.953125q0.71875 0.703125 1.8125 0.703125q1.515625 0 2.46875 -1.234375l1.203125 1.140625q-0.59375 0.875 -1.59375 1.375q-0.984375 0.484375 -2.21875 0.484375zm-0.265625 -8.453125q-0.90625 0 -1.46875 0.640625q-0.5625 0.640625 -0.703125 1.78125l4.203125 0l0 -0.171875q-0.0625 -1.109375 -0.59375 -1.671875q-0.515625 -0.578125 -1.4375 -0.578125zm11.464478 5.59375q0 -0.59375 -0.484375 -0.90625q-0.484375 -0.3125 -1.625 -0.546875q-1.125 -0.234375 -1.875 -0.609375q-1.65625 -0.796875 -1.65625 -2.3125q0 -1.28125 1.0625 -2.125q1.078125 -0.859375 2.734375 -0.859375q1.78125 0 2.859375 0.875q1.09375 0.859375 1.09375 2.265625l-2.21875 0q0 -0.640625 -0.46875 -1.0625q-0.46875 -0.421875 -1.265625 -0.421875q-0.71875 0 -1.1875 0.34375q-0.453125 0.328125 -0.453125 0.890625q0 0.515625 0.421875 0.796875q0.4375 0.28125 1.734375 0.5625q1.296875 0.28125 2.03125 0.6875q0.75 0.390625 1.109375 0.953125q0.375 0.546875 0.375 1.34375q0 1.328125 -1.109375 2.15625q-1.109375 0.828125 -2.890625 0.828125q-1.203125 0 -2.15625 -0.4375q-0.953125 -0.4375 -1.484375 -1.203125q-0.515625 -0.765625 -0.515625 -1.65625l2.140625 0q0.046875 0.78125 0.59375 1.21875q0.546875 0.421875 1.453125 0.421875q0.875 0 1.328125 -0.328125q0.453125 -0.34375 0.453125 -0.875zm9.628723 0q0 -0.59375 -0.484375 -0.90625q-0.484375 -0.3125 -1.625 -0.546875q-1.125 -0.234375 -1.875 -0.609375q-1.65625 -0.796875 -1.65625 -2.3125q0 -1.28125 1.0625 -2.125q1.078125 -0.859375 2.734375 -0.859375q1.78125 0 2.859375 0.875q1.09375 0.859375 1.09375 2.265625l-2.21875 0q0 -0.640625 -0.46875 -1.0625q-0.46875 -0.421875 -1.265625 -0.421875q-0.71875 0 -1.1875 0.34375q-0.453125 0.328125 -0.453125 0.890625q0 0.515625 0.421875 0.796875q0.4375 0.28125 1.734375 0.5625q1.296875 0.28125 2.03125 0.6875q0.75 0.390625 1.109375 0.953125q0.375 0.546875 0.375 1.34375q0 1.328125 -1.109375 2.15625q-1.109375 0.828125 -2.890625 0.828125q-1.203125 0 -2.15625 -0.4375q-0.953125 -0.4375 -1.484375 -1.203125q-0.515625 -0.765625 -0.515625 -1.65625l2.140625 0q0.046875 0.78125 0.59375 1.21875q0.546875 0.421875 1.453125 0.421875q0.875 0 1.328125 -0.328125q0.453125 -0.34375 0.453125 -0.875z" fill-rule="nonzero"/><path fill="#ffffff" d="m448.6211 437.48172q0 -0.59375 -0.484375 -0.90625q-0.484375 -0.3125 -1.625 -0.546875q-1.125 -0.234375 -1.875 -0.609375q-1.65625 -0.796875 -1.65625 -2.3125q0 -1.28125 1.0625 -2.125q1.078125 -0.859375 2.734375 -0.859375q1.78125 0 2.859375 0.875q1.09375 0.859375 1.09375 2.265625l-2.21875 0q0 -0.640625 -0.46875 -1.0625q-0.46875 -0.421875 -1.265625 -0.421875q-0.71875 0 -1.1875 0.34375q-0.453125 0.328125 -0.453125 0.890625q0 0.515625 0.421875 0.796875q0.4375 0.28125 1.734375 0.5625q1.296875 0.28125 2.03125 0.6875q0.75 0.390625 1.109375 0.953125q0.375 0.546875 0.375 1.34375q0 1.328125 -1.109375 2.15625q-1.109375 0.828125 -2.890625 0.828125q-1.203125 0 -2.15625 -0.4375q-0.953125 -0.4375 -1.484375 -1.203125q-0.515625 -0.765625 -0.515625 -1.65625l2.140625 0q0.046875 0.78125 0.59375 1.21875q0.546875 0.421875 1.453125 0.421875q0.875 0 1.328125 -0.328125q0.453125 -0.34375 0.453125 -0.875zm8.441223 2.859375q-2.09375 0 -3.40625 -1.328125q-1.3125 -1.328125 -1.3125 -3.53125l0 -0.28125q0 -1.46875 0.5625 -2.625q0.578125 -1.171875 1.609375 -1.8125q1.03125 -0.640625 2.296875 -0.640625q2.015625 0 3.109375 1.28125q1.09375 1.28125 1.09375 3.625l0 0.890625l-6.4375 0q0.109375 1.234375 0.8125 1.953125q0.71875 0.703125 1.8125 0.703125q1.515625 0 2.46875 -1.234375l1.203125 1.140625q-0.59375 0.875 -1.59375 1.375q-0.984375 0.484375 -2.21875 0.484375zm-0.265625 -8.453125q-0.90625 0 -1.46875 0.640625q-0.5625 0.640625 -0.703125 1.78125l4.203125 0l0 -0.171875q-0.0625 -1.109375 -0.59375 -1.671875q-0.515625 -0.578125 -1.4375 -0.578125zm11.105103 0.4375q-0.4375 -0.078125 -0.90625 -0.078125q-1.515625 0 -2.046875 1.171875l0 6.734375l-2.21875 0l0 -9.859375l2.125 0l0.046875 1.109375q0.796875 -1.28125 2.21875 -1.28125q0.484375 0 0.78125 0.125l0 2.078125zm5.0354004 5.015625l2.09375 -7.046875l2.28125 0l-3.421875 9.859375l-1.921875 0l-3.4375 -9.859375l2.296875 0l2.109375 7.046875zm8.102905 2.8125l-2.203125 0l0 -9.859375l2.203125 0l0 9.859375zm-2.34375 -12.421875q0 -0.5 0.3125 -0.828125q0.328125 -0.34375 0.921875 -0.34375q0.609375 0 0.9375 0.34375q0.328125 0.328125 0.328125 0.828125q0 0.5 -0.328125 0.84375q-0.328125 0.328125 -0.9375 0.328125q-0.59375 0 -0.921875 -0.328125q-0.3125 -0.34375 -0.3125 -0.84375zm8.811157 10.84375q0.828125 0 1.375 -0.484375q0.546875 -0.484375 0.578125 -1.203125l2.09375 0q-0.046875 0.921875 -0.59375 1.71875q-0.53125 0.796875 -1.453125 1.265625q-0.90625 0.46875 -1.984375 0.46875q-2.0625 0 -3.28125 -1.34375q-1.203125 -1.34375 -1.203125 -3.703125l0 -0.21875q0 -2.25 1.203125 -3.59375q1.203125 -1.359375 3.28125 -1.359375q1.75 0 2.859375 1.03125q1.109375 1.015625 1.171875 2.671875l-2.09375 0q-0.03125 -0.84375 -0.578125 -1.390625q-0.546875 -0.546875 -1.375 -0.546875q-1.078125 0 -1.671875 0.78125q-0.578125 0.78125 -0.578125 2.359375l0 0.359375q0 1.609375 0.578125 2.40625q0.578125 0.78125 1.671875 0.78125zm10.046631 1.765625q-2.09375 0 -3.40625 -1.328125q-1.3125 -1.328125 -1.3125 -3.53125l0 -0.28125q0 -1.46875 0.5625 -2.625q0.578125 -1.171875 1.609375 -1.8125q1.03125 -0.640625 2.296875 -0.640625q2.015625 0 3.109375 1.28125q1.09375 1.28125 1.09375 3.625l0 0.890625l-6.4375 0q0.109375 1.234375 0.8125 1.953125q0.71875 0.703125 1.8125 0.703125q1.515625 0 2.46875 -1.234375l1.203125 1.140625q-0.59375 0.875 -1.59375 1.375q-0.984375 0.484375 -2.21875 0.484375zm-0.265625 -8.453125q-0.90625 0 -1.46875 0.640625q-0.5625 0.640625 -0.703125 1.78125l4.203125 0l0 -0.171875q-0.0625 -1.109375 -0.59375 -1.671875q-0.515625 -0.578125 -1.4375 -0.578125zm11.464447 5.59375q0 -0.59375 -0.484375 -0.90625q-0.484375 -0.3125 -1.625 -0.546875q-1.125 -0.234375 -1.875 -0.609375q-1.65625 -0.796875 -1.65625 -2.3125q0 -1.28125 1.0625 -2.125q1.078125 -0.859375 2.734375 -0.859375q1.78125 0 2.859375 0.875q1.09375 0.859375 1.09375 2.265625l-2.21875 0q0 -0.640625 -0.46875 -1.0625q-0.46875 -0.421875 -1.265625 -0.421875q-0.71875 0 -1.1875 0.34375q-0.453125 0.328125 -0.453125 0.890625q0 0.515625 0.421875 0.796875q0.4375 0.28125 1.734375 0.5625q1.296875 0.28125 2.03125 0.6875q0.75 0.390625 1.109375 0.953125q0.375 0.546875 0.375 1.34375q0 1.328125 -1.109375 2.15625q-1.109375 0.828125 -2.890625 0.828125q-1.203125 0 -2.15625 -0.4375q-0.953125 -0.4375 -1.484375 -1.203125q-0.515625 -0.765625 -0.515625 -1.65625l2.140625 0q0.046875 0.78125 0.59375 1.21875q0.546875 0.421875 1.453125 0.421875q0.875 0 1.328125 -0.328125q0.453125 -0.34375 0.453125 -0.875z" fill-rule="nonzero"/><path fill="#000000" fill-opacity="0.0" d="m287.9449 306.76642l121.82678 0" fill-rule="evenodd"/><path stroke="#000000" stroke-width="1.0" stroke-linejoin="round" stroke-linecap="butt" d="m293.9449 306.76642l115.82678 0" fill-rule="evenodd"/><path fill="#000000" stroke="#000000" stroke-width="1.0" stroke-linecap="butt" d="m293.9449 305.1147l-4.538086 1.6517334l4.538086 1.6517334z" fill-rule="evenodd"/><path fill="#000000" fill-opacity="0.0" d="m285.1916 286.68765c31.14563 0 45.361603 -9.36087 62.29126 -19.114166c16.929626 -9.753265 36.572968 -19.898926 64.68115 -19.114151c28.108154 0.7847748 64.68115 12.499985 64.68115 24.999985" fill-rule="evenodd"/><path stroke="#000000" stroke-width="1.0" stroke-linejoin="round" stroke-linecap="butt" stroke-dasharray="4.0,3.0" d="m285.1916 286.68765c31.14563 0 45.361603 -9.36087 62.29123 -19.114166c16.929657 -9.753265 36.572998 -19.898926 64.68118 -19.114151c14.054077 0.39239502 30.224365 3.517395 42.881104 8.106766c6.32843 2.2947083 11.778412 4.9555054 15.646332 7.823883c0.96694946 0.71710205 1.8350525 1.4471741 2.5932922 2.1877441c0.37911987 0.37026978 0.7307434 0.74316406 1.0535278 1.1184082l0.19143677 0.22796631" fill-rule="evenodd"/><path fill="#000000" stroke="#000000" stroke-width="1.0" stroke-linecap="butt" d="m473.00592 268.56152l3.275055 3.5491333l-0.22750854 -4.8239746z" fill-rule="evenodd"/><path fill="#000000" fill-opacity="0.0" d="m543.916 306.76642l36.503906 0" fill-rule="evenodd"/><path stroke="#000000" stroke-width="1.0" stroke-linejoin="round" stroke-linecap="butt" d="m549.916 306.76642l30.503906 0" fill-rule="evenodd"/><path fill="#000000" stroke="#000000" stroke-width="1.0" stroke-linecap="butt" d="m549.916 305.1147l-4.538086 1.6517334l4.538086 1.6517334z" fill-rule="evenodd"/><path fill="#000000" fill-opacity="0.0" d="m476.84515 388.9265l0 -48.850403" fill-rule="evenodd"/><path stroke="#000000" stroke-width="1.0" stroke-linejoin="round" stroke-linecap="butt" d="m476.84515 388.9265l0 -42.850403" fill-rule="evenodd"/><path fill="#000000" stroke="#000000" stroke-width="1.0" stroke-linecap="butt" d="m478.4969 346.0761l-1.6517334 -4.538086l-1.6517334 4.538086z" fill-rule="evenodd"/><path fill="#3d85c6" d="m742.4278 284.56168l0 0c0 -6.131653 4.970703 -11.102356 11.102417 -11.102356l111.93695 0c2.94458 0 5.7684937 1.1697083 7.850586 3.2518005c2.0820923 2.0820923 3.251831 4.9060364 3.251831 7.8505554l0 44.409454c0 6.131653 -4.970703 11.102356 -11.102417 11.102356l-111.93695 0c-6.131714 0 -11.102417 -4.970703 -11.102417 -11.102356z" fill-rule="evenodd"/><path fill="#ffffff" d="m773.6243 297.76453l0 4.921875l-2.3125 0l0 -13.265625l5.078125 0q2.21875 0 3.53125 1.15625q1.3125 1.15625 1.3125 3.0625q0 1.953125 -1.28125 3.046875q-1.28125 1.078125 -3.59375 1.078125l-2.734375 0zm0 -1.859375l2.765625 0q1.234375 0 1.875 -0.578125q0.65625 -0.578125 0.65625 -1.671875q0 -1.078125 -0.65625 -1.71875q-0.65625 -0.640625 -1.8125 -0.65625l-2.828125 0l0 4.625zm11.752441 6.78125l-2.203125 0l0 -14.0l2.203125 0l0 14.0zm8.295532 0q-0.140625 -0.28125 -0.25 -0.921875q-1.046875 1.109375 -2.578125 1.109375q-1.484375 0 -2.4375 -0.84375q-0.9375 -0.859375 -0.9375 -2.109375q0 -1.578125 1.171875 -2.40625q1.171875 -0.84375 3.359375 -0.84375l1.359375 0l0 -0.65625q0 -0.765625 -0.4375 -1.21875q-0.421875 -0.46875 -1.296875 -0.46875q-0.765625 0 -1.25 0.390625q-0.46875 0.375 -0.46875 0.953125l-2.21875 0q0 -0.8125 0.53125 -1.515625q0.546875 -0.703125 1.46875 -1.09375q0.921875 -0.40625 2.0625 -0.40625q1.734375 0 2.75 0.875q1.03125 0.859375 1.0625 2.4375l0 4.4375q0 1.328125 0.375 2.125l0 0.15625l-2.265625 0zm-2.421875 -1.59375q0.65625 0 1.234375 -0.3125q0.578125 -0.328125 0.875 -0.859375l0 -1.859375l-1.203125 0q-1.234375 0 -1.859375 0.4375q-0.609375 0.421875 -0.609375 1.203125q0 0.640625 0.421875 1.015625q0.421875 0.375 1.140625 0.375zm9.940979 -1.578125l2.015625 -6.6875l2.359375 0l-3.921875 11.359375q-0.90625 2.484375 -3.0625 2.484375q-0.484375 0 -1.0625 -0.171875l0 -1.703125l0.421875 0.015625q0.828125 0 1.25 -0.3125q0.421875 -0.296875 0.671875 -1.015625l0.328125 -0.84375l-3.46875 -9.8125l2.390625 0l2.078125 6.6875zm9.925903 -1.578125l-4.78125 0l0 -1.78125l4.78125 0l0 1.78125zm4.605957 -7.5l0 2.390625l1.734375 0l0 1.640625l-1.734375 0l0 5.5q0 0.5625 0.21875 0.8125q0.234375 0.25 0.796875 0.25q0.390625 0 0.78125 -0.078125l0 1.703125q-0.75 0.21875 -1.453125 0.21875q-2.5625 0 -2.5625 -2.8125l0 -5.59375l-1.609375 0l0 -1.640625l1.609375 0l0 -2.390625l2.21875 0zm5.7816772 12.25l-2.203125 0l0 -9.859375l2.203125 0l0 9.859375zm-2.34375 -12.421875q0 -0.5 0.3125 -0.828125q0.328125 -0.34375 0.921875 -0.34375q0.609375 0 0.9375 0.34375q0.328125 0.328125 0.328125 0.828125q0 0.5 -0.328125 0.84375q-0.328125 0.328125 -0.9375 0.328125q-0.59375 0 -0.921875 -0.328125q-0.3125 -0.34375 -0.3125 -0.84375zm6.842407 2.5625l0.0625 1.03125q1.03125 -1.203125 2.84375 -1.203125q1.96875 0 2.703125 1.5q1.078125 -1.5 3.015625 -1.5q1.640625 0 2.4375 0.90625q0.796875 0.890625 0.8125 2.640625l0 6.484375l-2.21875 0l0 -6.40625q0 -0.9375 -0.40625 -1.375q-0.40625 -0.4375 -1.359375 -0.4375q-0.75 0 -1.234375 0.40625q-0.46875 0.390625 -0.671875 1.046875l0.015625 6.765625l-2.21875 0l0 -6.484375q-0.046875 -1.734375 -1.765625 -1.734375q-1.328125 0 -1.890625 1.078125l0 7.140625l-2.21875 0l0 -9.859375l2.09375 0zm18.483093 10.046875q-2.09375 0 -3.40625 -1.328125q-1.3125 -1.328125 -1.3125 -3.53125l0 -0.28125q0 -1.46875 0.5625 -2.625q0.578125 -1.171875 1.609375 -1.8125q1.03125 -0.640625 2.296875 -0.640625q2.015625 0 3.109375 1.28125q1.09375 1.28125 1.09375 3.625l0 0.890625l-6.4375 0q0.109375 1.234375 0.8125 1.953125q0.71875 0.703125 1.8125 0.703125q1.515625 0 2.46875 -1.234375l1.203125 1.140625q-0.59375 0.875 -1.59375 1.375q-0.984375 0.484375 -2.21875 0.484375zm-0.265625 -8.453125q-0.90625 0 -1.46875 0.640625q-0.5625 0.640625 -0.703125 1.78125l4.203125 0l0 -0.171875q-0.0625 -1.109375 -0.59375 -1.671875q-0.515625 -0.578125 -1.4375 -0.578125z" fill-rule="nonzero"/><path fill="#ffffff" d="m779.504 312.4364l0 2.390625l1.734375 0l0 1.640625l-1.734375 0l0 5.5q0 0.5625 0.21875 0.8125q0.234375 0.25 0.796875 0.25q0.390625 0 0.78125 -0.078125l0 1.703125q-0.75 0.21875 -1.453125 0.21875q-2.5625 0 -2.5625 -2.8125l0 -5.59375l-1.609375 0l0 -1.640625l1.609375 0l0 -2.390625l2.21875 0zm8.594177 4.421875q-0.4375 -0.078125 -0.90625 -0.078125q-1.515625 0 -2.046875 1.171875l0 6.734375l-2.21875 0l0 -9.859375l2.125 0l0.046875 1.109375q0.796875 -1.28125 2.21875 -1.28125q0.484375 0 0.78125 0.125l0 2.078125zm7.0041504 7.828125q-0.140625 -0.28125 -0.25 -0.921875q-1.046875 1.109375 -2.578125 1.109375q-1.484375 0 -2.4375 -0.84375q-0.9375 -0.859375 -0.9375 -2.109375q0 -1.578125 1.171875 -2.40625q1.171875 -0.84375 3.359375 -0.84375l1.359375 0l0 -0.65625q0 -0.765625 -0.4375 -1.21875q-0.421875 -0.46875 -1.296875 -0.46875q-0.765625 0 -1.25 0.390625q-0.46875 0.375 -0.46875 0.953125l-2.21875 0q0 -0.8125 0.53125 -1.515625q0.546875 -0.703125 1.46875 -1.09375q0.921875 -0.40625 2.0625 -0.40625q1.734375 0 2.75 0.875q1.03125 0.859375 1.0625 2.4375l0 4.4375q0 1.328125 0.375 2.125l0 0.15625l-2.265625 0zm-2.421875 -1.59375q0.65625 0 1.234375 -0.3125q0.578125 -0.328125 0.875 -0.859375l0 -1.859375l-1.203125 0q-1.234375 0 -1.859375 0.4375q-0.609375 0.421875 -0.609375 1.203125q0 0.640625 0.421875 1.015625q0.421875 0.375 1.140625 0.375zm10.687073 0.015625q0.828125 0 1.375 -0.484375q0.546875 -0.484375 0.578125 -1.203125l2.09375 0q-0.046875 0.921875 -0.59375 1.71875q-0.53125 0.796875 -1.453125 1.265625q-0.90625 0.46875 -1.984375 0.46875q-2.0625 0 -3.28125 -1.34375q-1.203125 -1.34375 -1.203125 -3.703125l0 -0.21875q0 -2.25 1.203125 -3.59375q1.203125 -1.359375 3.28125 -1.359375q1.75 0 2.859375 1.03125q1.109375 1.015625 1.171875 2.671875l-2.09375 0q-0.03125 -0.84375 -0.578125 -1.390625q-0.546875 -0.546875 -1.375 -0.546875q-1.078125 0 -1.671875 0.78125q-0.578125 0.78125 -0.578125 2.359375l0 0.359375q0 1.609375 0.578125 2.40625q0.578125 0.78125 1.671875 0.78125zm8.921631 -2.65625l-0.984375 1.015625l0 3.21875l-2.21875 0l0 -14.0l2.21875 0l0 8.078125l0.6875 -0.859375l2.71875 -3.078125l2.65625 0l-3.65625 4.109375l4.046875 5.75l-2.546875 0l-2.921875 -4.234375zm8.878662 4.234375l-2.203125 0l0 -9.859375l2.203125 0l0 9.859375zm-2.34375 -12.421875q0 -0.5 0.3125 -0.828125q0.328125 -0.34375 0.921875 -0.34375q0.609375 0 0.9375 0.34375q0.328125 0.328125 0.328125 0.828125q0 0.5 -0.328125 0.84375q-0.328125 0.328125 -0.9375 0.328125q-0.59375 0 -0.921875 -0.328125q-0.3125 -0.34375 -0.3125 -0.84375zm6.811157 2.5625l0.0625 1.140625q1.09375 -1.3125 2.875 -1.3125q3.078125 0 3.125 3.515625l0 6.515625l-2.203125 0l0 -6.390625q0 -0.9375 -0.40625 -1.375q-0.40625 -0.453125 -1.328125 -0.453125q-1.34375 0 -2.0 1.203125l0 7.015625l-2.203125 0l0 -9.859375l2.078125 0zm7.9382324 4.859375q0 -2.296875 1.078125 -3.65625q1.078125 -1.375 2.859375 -1.375q1.6875 0 2.65625 1.171875l0.09375 -1.0l2.0 0l0 9.5625q0 1.9375 -1.21875 3.046875q-1.203125 1.125 -3.25 1.125q-1.078125 0 -2.109375 -0.453125q-1.03125 -0.4375 -1.578125 -1.171875l1.046875 -1.328125q1.03125 1.203125 2.515625 1.203125q1.109375 0 1.734375 -0.59375q0.640625 -0.59375 0.640625 -1.75l0 -0.671875q-0.953125 1.078125 -2.546875 1.078125q-1.734375 0 -2.828125 -1.375q-1.09375 -1.375 -1.09375 -3.8125zm2.203125 0.1875q0 1.484375 0.59375 2.34375q0.609375 0.84375 1.6875 0.84375q1.34375 0 1.984375 -1.140625l0 -4.34375q-0.625 -1.109375 -1.96875 -1.109375q-1.09375 0 -1.703125 0.859375q-0.59375 0.859375 -0.59375 2.546875z" fill-rule="nonzero"/><path fill="#000000" fill-opacity="0.0" d="m287.042 284.8609c36.49884 0 33.30069 -24.652252 72.99765 -52.011826c39.69696 -27.359589 122.289 -57.426514 224.72952 -52.011826c102.44055 5.4147034 224.72949 46.311035 224.72949 92.62207" fill-rule="evenodd"/><path stroke="#000000" stroke-width="1.0" stroke-linejoin="round" stroke-linecap="butt" stroke-dasharray="4.0,3.0" d="m287.042 284.8609c36.49884 0 33.30069 -24.652252 72.99765 -52.011826c39.69696 -27.359589 122.289 -57.42653 224.72952 -52.011826c51.220276 2.7073517 107.40265 14.28511 150.77997 30.974915c21.68866 8.34491 40.176025 17.96782 53.241333 28.398941c6.5325317 5.2155457 11.709595 10.633179 15.253479 16.194107c1.7719727 2.780487 3.1356812 5.5967712 4.0563965 8.441559c0.23010254 0.71121216 0.4326172 1.4241943 0.60687256 2.138855l0.11956787 0.5114136" fill-rule="evenodd"/><path fill="#000000" stroke="#000000" stroke-width="1.0" stroke-linecap="butt" d="m807.1855 267.682l2.149475 4.3246155l1.1331787 -4.694519z" fill-rule="evenodd"/></g></svg>