<?xml version="1.0" encoding="UTF-8" standalone="no"?>
<!-- Created with Inkscape (http://www.inkscape.org/) -->

<svg
   width="150mm"
   height="80mm"
   viewBox="0 0 150 80"
   version="1.1"
   id="svg5"
   inkscape:version="1.2.1 (9c6d41e410, 2022-07-14)"
   sodipodi:docname="kittypad.svg"
   inkscape:export-filename="gamepad-config.png"
   inkscape:export-xdpi="96"
   inkscape:export-ydpi="96"
   xmlns:inkscape="http://www.inkscape.org/namespaces/inkscape"
   xmlns:sodipodi="http://sodipodi.sourceforge.net/DTD/sodipodi-0.dtd"
   xmlns="http://www.w3.org/2000/svg"
   xmlns:svg="http://www.w3.org/2000/svg">
  <sodipodi:namedview
     id="namedview7"
     pagecolor="#ffffff"
     bordercolor="#999999"
     borderopacity="1"
     inkscape:showpageshadow="0"
     inkscape:pageopacity="0"
     inkscape:pagecheckerboard="0"
     inkscape:deskcolor="#d1d1d1"
     inkscape:document-units="mm"
     showgrid="false"
     inkscape:zoom="1.4770342"
     inkscape:cx="255.57972"
     inkscape:cy="197.69345"
     inkscape:window-width="1920"
     inkscape:window-height="1009"
     inkscape:window-x="-8"
     inkscape:window-y="-8"
     inkscape:window-maximized="1"
     inkscape:current-layer="layer1" />
  <defs
     id="defs2" />
  <g
     inkscape:label="Layer 1"
     inkscape:groupmode="layer"
     id="layer1">
    <path
       id="rect234"
       style="fill:none;stroke:#2f2f2f;stroke-width:0.5;stroke-linecap:round;stroke-linejoin:bevel;stroke-miterlimit:0;stroke-dasharray:none;paint-order:markers fill stroke"
       d="m 40.58357,12.7 c -16.619949,0 -30.000237,13.380287 -30.000237,30.000236 0,16.619949 13.380288,29.999719 30.000237,29.999719 h 4.691703 a 5,5 0 0 0 0.387574,0.0155 5,5 0 0 0 5.000211,-5.000211 5,5 0 0 0 -10e-4,-0.04961 l 3.513997,5.034318 2.645833,-3.790983 2.645834,3.790983 2.645833,-3.790983 2.645833,3.790983 2.645834,-3.790983 2.645833,3.790983 2.645833,-3.790983 2.645834,3.790983 2.645833,-3.790983 2.645833,3.790983 2.645834,-3.790983 2.645833,3.790983 2.910417,-4.169771 2.910416,4.169771 2.910417,-4.169771 2.910417,4.169771 2.949688,-4.226098 a 5,5 0 0 0 4.94131,4.241601 5,5 0 0 0 0.38757,-0.0155 h 4.73718 c 16.61994,0 29.99972,-13.37977 29.99972,-29.999719 C 140.58316,26.080287 127.20338,12.7 110.58344,12.7 Z" />
    <circle
       style="fill:none;stroke:#2f2f2f;stroke-width:0.5;stroke-linecap:round;stroke-linejoin:bevel;stroke-miterlimit:0;stroke-dasharray:none;paint-order:markers fill stroke"
       id="path1918"
       cx="38.083336"
       cy="42.707729"
       r="14.508406" />
    <circle
       style="fill:none;stroke:#2f2f2f;stroke-width:0.5;stroke-linecap:round;stroke-linejoin:bevel;stroke-miterlimit:0;stroke-dasharray:none;paint-order:markers fill stroke"
       id="circle1920"
       cx="114.08332"
       cy="42.707729"
       r="14.508406" />
    <path
       id="rect1974"
       style="fill:none;stroke:#2f2f2f;stroke-width:0.5;stroke-linecap:round;stroke-linejoin:bevel;stroke-miterlimit:0;stroke-dasharray:none;paint-order:markers fill stroke"
       d="m 62.550974,12.7 26.06472,0.0077 6.459919,-0.0077 v 17.532358 c 0,3.578795 -2.881124,6.459919 -6.459919,6.459919 h -26.06472 c -3.578795,0 -6.459919,-2.881124 -6.459919,-6.459919 V 12.7 Z"
       sodipodi:nodetypes="cccsssscc" />
    <path
       id="rect1979"
       style="fill:#4e6f88;fill-opacity:0.2;stroke:#2f2f2f;stroke-width:1;stroke-linecap:round;stroke-linejoin:bevel;stroke-miterlimit:0;stroke-dasharray:none;paint-order:markers fill stroke"
       d="m 27.40918,6.6683269 c -4.238467,-0.046995 -8.114085,2.7575139 -9.264034,7.0491821 l -3.610633,13.474629 c -0.08366,0.312226 -0.150731,0.624783 -0.202051,0.936896 5.108386,-9.216049 14.926858,-15.429033 26.251112,-15.429033 h 6.557738 C 46.065554,11.739305 44.754281,11.006731 43.26093,10.606589 L 29.786299,6.9964731 C 28.991546,6.7835196 28.194085,6.6770305 27.409184,6.668328 Z" />
    <path
       id="rect1981"
       style="fill:#4e6f88;fill-opacity:0.2;stroke:#2f2f2f;stroke-width:1;stroke-linecap:round;stroke-linejoin:bevel;stroke-miterlimit:0;stroke-dasharray:none;paint-order:markers fill stroke"
       d="m 123.89063,6.6683281 c -0.7849,0.0087 -1.58236,0.1151919 -2.37711,0.3281431 l -13.47463,3.6101168 c -1.49353,0.40019 -2.80508,1.132545 -3.88091,2.093412 h 6.42545 c 11.45793,-10e-7 21.37387,6.360518 26.4294,15.75666 -0.0544,-0.420824 -0.13454,-0.842906 -0.24751,-1.264526 l -3.61063,-13.47463 c -1.14995,-4.2916686 -5.02557,-7.0961769 -9.26404,-7.0491811 z" />
    <rect
       style="fill:#4e6f88;fill-opacity:0.2;stroke:#2f2f2f;stroke-width:1;stroke-linecap:round;stroke-linejoin:bevel;stroke-miterlimit:0;stroke-dasharray:none;paint-order:markers fill stroke"
       id="rect1999"
       width="8.909831"
       height="18.909832"
       x="33.628418"
       y="33.252815"
       ry="4.727458" />
    <rect
       style="fill:#4e6f88;fill-opacity:0.2;stroke:#2f2f2f;stroke-width:1;stroke-linecap:round;stroke-linejoin:bevel;stroke-miterlimit:0;stroke-dasharray:none;paint-order:markers fill stroke"
       id="rect2001"
       width="8.909831"
       height="18.909832"
       x="38.252815"
       y="-47.53825"
       ry="4.727458"
       transform="rotate(90)" />
    <circle
       style="fill:#4e6f88;fill-opacity:0.2;stroke:#2f2f2f;stroke-width:1;stroke-linecap:round;stroke-linejoin:bevel;stroke-miterlimit:0;stroke-dasharray:none;paint-order:markers fill stroke"
       id="path2003"
       cx="114.08332"
       cy="50.754417"
       r="4.5927119" />
    <circle
       style="fill:#4e6f88;fill-opacity:0.2;stroke:#2f2f2f;stroke-width:1;stroke-linecap:round;stroke-linejoin:bevel;stroke-miterlimit:0;stroke-dasharray:none;paint-order:markers fill stroke"
       id="circle2009"
       cx="120.9625"
       cy="38.58358"
       r="4.5927119" />
    <circle
       style="fill:#4e6f88;fill-opacity:0.2;stroke:#2f2f2f;stroke-width:1;stroke-linecap:round;stroke-linejoin:bevel;stroke-miterlimit:0;stroke-dasharray:none;paint-order:markers fill stroke"
       id="circle2011"
       cx="107.20415"
       cy="38.58358"
       r="4.5927119" />
    <rect
       style="fill:#4e6f88;fill-opacity:0.2;stroke:#2f2f2f;stroke-width:1;stroke-linecap:round;stroke-linejoin:bevel;stroke-miterlimit:0;stroke-dasharray:none;paint-order:markers fill stroke"
       id="rect2013"
       width="11.264627"
       height="6.764627"
       x="71.558159"
       y="69.689598"
       ry="3.3823135"
       transform="rotate(-30)" />
    <rect
       style="fill:#4e6f88;fill-opacity:0.2;stroke:#2f2f2f;stroke-width:1;stroke-linecap:round;stroke-linejoin:bevel;stroke-miterlimit:0;stroke-dasharray:none;paint-order:markers fill stroke"
       id="rect2015"
       width="11.264627"
       height="6.764627"
       x="-59.849419"
       y="-6.1786056"
       ry="3.3823135"
       transform="matrix(-0.8660254,-0.5,-0.5,0.8660254,0,0)" />
    <circle
       style="fill:#4e6f88;fill-opacity:0.2;stroke:#2f2f2f;stroke-width:1.01822;stroke-linecap:round;stroke-linejoin:bevel;stroke-miterlimit:0;stroke-dasharray:none;paint-order:markers fill stroke"
       id="circle2017"
       cx="75.583328"
       cy="52.004417"
       r="5.7408895" />
    <path
       style="fill:none;fill-opacity:0.2;stroke:#c9435e;stroke-width:0.499999;stroke-linecap:round;stroke-linejoin:bevel;stroke-miterlimit:0;stroke-dasharray:none;paint-order:markers fill stroke"
       d="M 23.287093,13.613993 12.795271,7.5565364 H 5.0156816"
       id="path2871" />
    <path
       style="fill:none;fill-opacity:0.2;stroke:#c9435e;stroke-width:0.499999;stroke-linecap:round;stroke-linejoin:bevel;stroke-miterlimit:0;stroke-dasharray:none;paint-order:markers fill stroke"
       d="M 47.469842,24.18275 H 13.613993 L 5.5307999,19.515916"
       id="path3653" />
    <path
       style="fill:none;fill-opacity:0.2;stroke:#c9435e;stroke-width:0.499999;stroke-linecap:round;stroke-linejoin:bevel;stroke-miterlimit:0;stroke-dasharray:none;paint-order:markers fill stroke"
       d="M 37.080216,35.826297 28.366849,30.795632 H 5.911339"
       id="path4381" />
    <path
       style="fill:none;fill-opacity:0.2;stroke:#c9435e;stroke-width:0.499999;stroke-linecap:round;stroke-linejoin:bevel;stroke-miterlimit:0;stroke-dasharray:none;paint-order:markers fill stroke"
       d="M 30.989746,42.633294 H 5.194813"
       id="path5109" />
    <path
       style="fill:none;fill-opacity:0.2;stroke:#c9435e;stroke-width:0.499999;stroke-linecap:round;stroke-linejoin:bevel;stroke-miterlimit:0;stroke-dasharray:none;paint-order:markers fill stroke"
       d="M 37.975873,49.798551 34.158822,64.043983 H 5.911339"
       id="path5839" />
    <path
       style="fill:none;fill-opacity:0.2;stroke:#c9435e;stroke-width:0.499999;stroke-linecap:round;stroke-linejoin:bevel;stroke-miterlimit:0;stroke-dasharray:none;paint-order:markers fill stroke"
       d="m 44.603738,42.812424 -15.427351,4.133747 -3.721371,6.445602 H 5.194813"
       id="path5841" />
    <path
       style="fill:none;fill-opacity:0.2;stroke:#c9435e;stroke-width:0.499999;stroke-linecap:round;stroke-linejoin:bevel;stroke-miterlimit:0;stroke-dasharray:none;paint-order:markers fill stroke"
       d="m 125.7503,12.539204 5.91134,-5.9113392 h 12.89747"
       id="path5843" />
    <path
       style="fill:none;fill-opacity:0.2;stroke:#c9435e;stroke-width:0.499999;stroke-linecap:round;stroke-linejoin:bevel;stroke-miterlimit:0;stroke-dasharray:none;paint-order:markers fill stroke"
       d="m 103.89626,24.541013 19.05947,-5.10697 h 20.17032"
       id="path5845" />
    <path
       style="fill:none;fill-opacity:0.2;stroke:#c9435e;stroke-width:0.499999;stroke-linecap:round;stroke-linejoin:bevel;stroke-miterlimit:0;stroke-dasharray:none;paint-order:markers fill stroke"
       d="m 107.12063,38.155006 6.44873,-6.448734 H 141.693"
       id="path6573" />
    <path
       style="fill:none;fill-opacity:0.2;stroke:#c9435e;stroke-width:0.499999;stroke-linecap:round;stroke-linejoin:bevel;stroke-miterlimit:0;stroke-dasharray:none;paint-order:markers fill stroke"
       d="m 120.55549,38.513268 6.0009,6.000906 h 15.49488"
       id="path6575" />
    <path
       style="fill:none;fill-opacity:0.2;stroke:#c9435e;stroke-width:0.499999;stroke-linecap:round;stroke-linejoin:bevel;stroke-miterlimit:0;stroke-dasharray:none;paint-order:markers fill stroke"
       d="m 114.10675,50.873342 15.74962,4.220096 h 10.76184"
       id="path6577" />
    <path
       style="fill:none;fill-opacity:0.2;stroke:#c9435e;stroke-width:0.499999;stroke-linecap:round;stroke-linejoin:bevel;stroke-miterlimit:0;stroke-dasharray:none;paint-order:markers fill stroke"
       d="m 75.951748,52.664656 49.180082,13.177763 h 15.84465"
       id="path6579" />
  </g>
</svg>
