<?xml version="1.0" encoding="UTF-8" standalone="no"?>
<!-- Created with Inkscape (http://www.inkscape.org/) -->

<svg
   width="131.24889mm"
   height="66.067528mm"
   viewBox="0 0 131.24889 66.067515"
   version="1.1"
   id="svg5"
   xml:space="preserve"
   xmlns="http://www.w3.org/2000/svg"
   xmlns:svg="http://www.w3.org/2000/svg"><defs
     id="defs2"><linearGradient
       id="linearGradient12738"><stop
         style="stop-color:#e8ebec;stop-opacity:1;"
         offset="0"
         id="stop12736" /></linearGradient></defs><g
     id="layer1"
     transform="translate(-6.3422161,-12.699998)"><g
       id="g766"><path
         id="rect11389"
         style="fill:#b0dbfa;fill-opacity:1;stroke:#7890b0;stroke-width:1.15412;stroke-linecap:round;stroke-linejoin:round;stroke-opacity:1;paint-order:stroke markers fill"
         d="m 33.061846,20.31069 24.695969,2.507841 c -3.255793,6.661157 -10.210495,9.16072 -10.210495,9.16072 l -22.929248,3.301426 c 0,-6.308596 4.08605,-15.412508 8.443774,-14.969987 z" /><path
         id="path11392"
         style="fill:#b0dbfa;fill-opacity:1;stroke:#7890b0;stroke-width:1.15412;stroke-linecap:round;stroke-linejoin:round;stroke-opacity:1;paint-order:stroke markers fill"
         d="m 112.81402,20.31069 -24.695971,2.507841 c 3.255787,6.661157 10.210494,9.16072 10.210494,9.16072 l 22.929257,3.301426 c 0,-6.308596 -4.08605,-15.412508 -8.44378,-14.969987 z" /><path
         id="rect11332"
         style="fill:#f6e1e1;fill-opacity:1;stroke:#d73d5a;stroke-width:1;stroke-linecap:round;stroke-linejoin:round;stroke-dasharray:none;stroke-opacity:1;paint-order:stroke markers fill"
         d="m 43.23302,22.928833 c -12.439271,0 -22.453927,12.383226 -22.453927,27.76523 0,14.964309 0.521746,26.910137 12.489663,27.557678 9.312408,0.482093 24.189852,-10.538587 39.637905,-10.540112 15.470793,2.06e-4 25.346931,9.062424 36.248359,9.844773 12.21383,-0.316548 16.41613,-11.680514 16.41613,-26.862339 0,-15.382004 -10.01414,-27.76523 -22.45341,-27.76523 z" /><path
         style="fill:#fafafa;fill-opacity:1;stroke:#fafafa;stroke-width:1.7;stroke-linecap:round;stroke-linejoin:round;stroke-dasharray:none;stroke-opacity:1;paint-order:stroke markers fill"
         d="M 20.999209,43.944958 61.427935,70.359825"
         id="path24534" /><path
         style="fill:#c9435e;fill-opacity:1;stroke:#c9435e;stroke-width:0.600001;stroke-linecap:round;stroke-linejoin:round;stroke-dasharray:none;stroke-opacity:1;paint-order:stroke markers fill"
         d="m 21.528376,42.886624 40.630249,26.61639"
         id="path24130" /><path
         style="fill:#c9435e;fill-opacity:1;stroke:#c9435e;stroke-width:0.600001;stroke-linecap:round;stroke-linejoin:round;stroke-dasharray:none;stroke-opacity:1;paint-order:stroke markers fill"
         d="M 21.141785,44.787605 59.532891,70.23964"
         id="path24140" /><circle
         style="fill:#e8ebec;fill-opacity:1;stroke:#afb2b2;stroke-width:0.4;stroke-linecap:round;stroke-linejoin:round;stroke-dasharray:none;stroke-opacity:1;paint-order:stroke markers fill"
         id="path11452"
         cx="40.662846"
         cy="48.007233"
         r="11.643546" /><path
         id="rect11456"
         style="fill:#fafafa;stroke:#7890b0;stroke-width:1;stroke-linecap:round;stroke-linejoin:round;stroke-dasharray:none;stroke-opacity:1;paint-order:stroke markers fill"
         d="m 40.841951,39.229647 c -2.327591,0 -4.300255,1.514021 -5.050337,3.644739 -2.130954,0.749963 -3.644739,2.723099 -3.644739,5.050854 0,2.327755 1.513785,4.300375 3.644739,5.050338 0.750082,2.130717 2.722746,3.644739 5.050337,3.644739 2.327592,0 4.300256,-1.514022 5.050338,-3.644739 2.130954,-0.749963 3.644739,-2.722583 3.644739,-5.050338 0,-2.327755 -1.513785,-4.300891 -3.644739,-5.050854 -0.750082,-2.130718 -2.722746,-3.644739 -5.050338,-3.644739 z" /><path
         id="rect11466"
         style="fill:#e8ebec;fill-opacity:1;stroke:#afb2b2;stroke-width:0.4;stroke-linecap:round;stroke-linejoin:round;stroke-dasharray:none;stroke-opacity:1;paint-order:stroke markers fill"
         d="m 95.283946,48.244442 16.261114,-9.38836 c 3.53557,-2.041258 7.70206,-1.39797 9.34192,1.442348 1.63986,2.840319 0.11371,6.770253 -3.42185,8.811511 l -16.26112,9.38836 c -3.535558,2.041258 -7.702052,1.39797 -9.341911,-1.442349 -1.639859,-2.840318 -0.113715,-6.770252 3.421847,-8.81151 z" /><circle
         style="fill:#ef9bc8;fill-opacity:1;stroke:#b27bad;stroke-width:1;stroke-linecap:round;stroke-linejoin:round;stroke-dasharray:none;stroke-opacity:1;paint-order:stroke markers fill"
         id="path11985"
         cx="97.203514"
         cy="54.195499"
         r="4.20959" /><circle
         style="fill:#deb798;fill-opacity:1;stroke:#9f6066;stroke-width:1;stroke-linecap:round;stroke-linejoin:round;stroke-dasharray:none;stroke-opacity:1;paint-order:stroke markers fill"
         id="circle11989"
         cx="106.7285"
         cy="48.37466"
         r="4.20959" /><circle
         style="fill:#b0dbfa;fill-opacity:1;stroke:#7890b0;stroke-width:1;stroke-linecap:round;stroke-linejoin:round;stroke-dasharray:none;stroke-opacity:1;paint-order:stroke markers fill"
         id="circle11991"
         cx="115.72433"
         cy="43.082989"
         r="4.20959" /><rect
         style="fill:#eb8b8d;fill-opacity:1;stroke:#d73d5a;stroke-width:1;stroke-linecap:round;stroke-linejoin:round;stroke-dasharray:none;stroke-opacity:1;paint-order:stroke markers fill"
         id="rect11993"
         width="6.9861279"
         height="3.2243667"
         x="60.417351"
         y="76.138054"
         rx="1.7265217"
         ry="3.2243667"
         transform="rotate(-30)" /><rect
         style="fill:#eb8b8d;fill-opacity:1;stroke:#d73d5a;stroke-width:1;stroke-linecap:round;stroke-linejoin:round;stroke-dasharray:none;stroke-opacity:1;paint-order:stroke markers fill"
         id="rect11995"
         width="6.9861279"
         height="3.2243667"
         x="-66.120209"
         y="3.0815582"
         rx="1.7265217"
         ry="3.2243667"
         transform="matrix(-0.8660254,-0.5,-0.5,0.8660254,0,0)" /><g
         id="g22975"
         style="stroke-width:0.7;stroke-dasharray:none"><path
           id="path12000"
           style="fill:#8dc6c5;stroke:none;stroke-width:0.7;stroke-linecap:round;stroke-linejoin:round;stroke-dasharray:none;paint-order:stroke markers fill"
           d="m 74.339648,48.813558 a 2.4182751,2.4182751 0 0 0 -2.256709,1.551326 1.231529,1.231529 0 0 0 -0.684713,-0.208256 1.231529,1.231529 0 0 0 -1.231449,1.231967 1.231529,1.231529 0 0 0 1.231449,1.231449 1.231529,1.231529 0 0 0 0.789616,-0.287838 2.4182751,2.4182751 0 0 0 2.151806,1.317749 2.4182751,2.4182751 0 0 0 2.133204,-1.282609 1.231529,1.231529 0 0 0 0.746207,0.252698 1.231529,1.231529 0 0 0 1.23145,-1.231449 1.231529,1.231529 0 0 0 -1.23145,-1.231967 1.231529,1.231529 0 0 0 -0.63407,0.176734 2.4182751,2.4182751 0 0 0 -2.245341,-1.519804 z" /><path
           id="path11997"
           style="fill:#eb8b8d;fill-opacity:1;stroke:#d73d5a;stroke-width:0.7;stroke-linecap:round;stroke-linejoin:round;stroke-dasharray:none;stroke-opacity:1;paint-order:stroke markers fill"
           d="m 78.549149,55.082932 c -1.636465,2.47329 -3.144925,4.626884 -4.478287,4.478287 -1.481587,-0.165116 -2.866104,-2.184129 -4.478287,-4.478287 -1.42205,-2.023595 2.004997,-4.478288 4.478287,-4.478288 2.47329,0 5.843057,2.415628 4.478287,4.478288 z" /></g><path
         id="rect14250"
         style="fill:#eb8b8d;fill-opacity:1;stroke:#d73d5a;stroke-width:0.6;stroke-linecap:round;stroke-linejoin:round;stroke-dasharray:none;stroke-opacity:1;paint-order:stroke markers fill"
         d="m 40.722922,40.596256 c -1.228016,0 -2.216918,0.988385 -2.216918,2.216402 0,0.08563 0.0051,0.170163 0.01447,0.253214 h 4.404382 c 0.0094,-0.08306 0.01447,-0.167571 0.01447,-0.253214 0,-1.228017 -0.988386,-2.216402 -2.216403,-2.216402 z" /><path
         id="path14255"
         style="fill:#eb8b8d;fill-opacity:1;stroke:#d73d5a;stroke-width:0.6;stroke-linecap:round;stroke-linejoin:round;stroke-dasharray:none;stroke-opacity:1;paint-order:stroke markers fill"
         d="m 40.722922,55.236707 c -1.228016,0 -2.216918,-0.988385 -2.216918,-2.216402 0,-0.08563 0.0051,-0.170163 0.01447,-0.253214 h 4.404382 c 0.0094,0.08306 0.01447,0.167571 0.01447,0.253214 0,1.228017 -0.988386,2.216402 -2.216403,2.216402 z" /><path
         id="path14257"
         style="fill:#eb8b8d;fill-opacity:1;stroke:#d73d5a;stroke-width:0.6;stroke-linecap:round;stroke-linejoin:round;stroke-dasharray:none;stroke-opacity:1;paint-order:stroke markers fill"
         d="m 47.77831,47.652158 c 0,-1.228016 -0.988385,-2.216918 -2.216402,-2.216918 -0.08563,0 -0.170163,0.0051 -0.253214,0.01447 v 4.404382 c 0.08306,0.0094 0.167571,0.01447 0.253214,0.01447 1.228017,0 2.216402,-0.988386 2.216402,-2.216403 z" /><path
         id="path14259"
         style="fill:#eb8b8d;fill-opacity:1;stroke:#d73d5a;stroke-width:0.6;stroke-linecap:round;stroke-linejoin:round;stroke-dasharray:none;stroke-opacity:1;paint-order:stroke markers fill"
         d="m 34.19619,47.652152 c 0,-1.228016 0.988385,-2.216918 2.216402,-2.216918 0.08563,0 0.170163,0.0051 0.253214,0.01447 v 4.404382 c -0.08306,0.0094 -0.167571,0.01447 -0.253214,0.01447 -1.228017,0 -2.216402,-0.988386 -2.216402,-2.216403 z" /><g
         id="g24445"
         transform="matrix(0.78805164,0,0,0.78805164,17.315218,8.6658819)"
         style="fill:#fafafa;fill-opacity:1;stroke:#c9435e;stroke-width:0.634476;stroke-dasharray:none;stroke-opacity:1" /><g
         id="g25572"
         transform="matrix(0.76777086,0,0,0.76777086,13.188855,7.6268299)"><path
           style="fill:none;fill-opacity:1;stroke:#2f2f2f;stroke-width:0.614;stroke-linecap:round;stroke-linejoin:round;stroke-dasharray:none;stroke-opacity:1;paint-order:stroke markers fill"
           d="m 53.837749,32.565749 0.02815,1.126115 h -1.013505"
           id="path25560" /><path
           style="fill:none;fill-opacity:1;stroke:#2f2f2f;stroke-width:0.614;stroke-linecap:round;stroke-linejoin:round;stroke-dasharray:none;stroke-opacity:1;paint-order:stroke markers fill"
           d="m 50.763875,31.575196 -0.02815,-1.126115 h 1.013505"
           id="path25392" /><path
           style="fill:none;fill-opacity:1;stroke:#2f2f2f;stroke-width:0.614;stroke-linecap:round;stroke-linejoin:round;stroke-dasharray:none;stroke-opacity:1;paint-order:stroke markers fill"
           d="m 53.837749,31.575196 0.02815,-1.126115 h -1.013505"
           id="path25556" /></g><circle
         style="fill:none;stroke:#fafafa;stroke-width:1.20876;stroke-linecap:round;stroke-linejoin:round;stroke-dasharray:none;paint-order:stroke markers fill"
         id="path344"
         cx="115.74023"
         cy="42.907795"
         r="2.4175153" /><g
         id="g568"
         transform="matrix(0.13977435,0,0,0.13977435,80.679204,49.447307)"><path
           style="fill:none;stroke:#fafafa;stroke-width:8.46667;stroke-linecap:round;stroke-linejoin:round;stroke-dasharray:none;stroke-opacity:1;paint-order:stroke markers fill"
           d="m 103.29334,18.626667 30.47999,30.479999"
           id="path2046" /><path
           style="fill:none;stroke:#fafafa;stroke-width:8.46667;stroke-linecap:round;stroke-linejoin:round;stroke-dasharray:none;stroke-opacity:1;paint-order:stroke markers fill"
           d="M 133.77333,18.626667 103.29334,49.106666"
           id="path2102" /></g><g
         id="g604"
         transform="matrix(0.13627969,0,0,0.13627969,78.976642,43.979913)"><path
           style="fill:none;stroke:#fafafa;stroke-width:8.46667;stroke-linecap:round;stroke-linejoin:round;stroke-dasharray:none;stroke-opacity:1;paint-order:stroke markers fill"
           id="path2218"
           d="m 203.2,50.799997 -5.98684,-10.946495 -10.9465,-5.986837 10.9465,-5.986837 5.98684,-10.946496 5.98683,10.946496 10.9465,5.986836 -10.9465,5.986838 z" /><path
           style="fill:none;stroke:#fafafa;stroke-width:4.23333;stroke-linecap:round;stroke-linejoin:round;stroke-dasharray:none;stroke-opacity:1;paint-order:stroke markers fill"
           id="path2227"
           d="m 220.13333,25.399999 -2.99342,-5.473248 -5.47324,-2.993418 5.47324,-2.993419 2.99342,-5.4732478 2.99342,5.4732478 5.47325,2.993418 -5.47325,2.993419 z"
           transform="matrix(0.49999996,0,0,0.49999996,110.15748,8.5574586)" /></g><path
         id="path2258"
         style="fill:#2f2f2f;stroke:none;stroke-width:0.248357;stroke-linecap:round;stroke-linejoin:round;stroke-dasharray:none;stroke-opacity:1;paint-order:stroke markers fill"
         d="m 91.646602,33.870284 a 0.49671298,0.49671298 0 0 0 -0.497127,0.496611 0.49671298,0.49671298 0 0 0 0.02636,0.155546 c 0.119554,-0.126598 0.260422,-0.238741 0.420646,-0.331246 l 0.362769,-0.209807 a 0.49671298,0.49671298 0 0 0 -0.312643,-0.111104 z" /><circle
         style="fill:#2f2f2f;stroke:none;stroke-width:0.248357;stroke-linecap:round;stroke-linejoin:round;stroke-dasharray:none;stroke-opacity:1;paint-order:stroke markers fill"
         id="circle660"
         cx="91.646385"
         cy="32.965305"
         r="0.49671298" /><circle
         style="fill:#2f2f2f;stroke:none;stroke-width:0.248357;stroke-linecap:round;stroke-linejoin:round;stroke-dasharray:none;stroke-opacity:1;paint-order:stroke markers fill"
         id="circle662"
         cx="91.646385"
         cy="31.563553"
         r="0.49671298" /></g><g
       id="g1819"><path
         style="fill:none;stroke:#4e6f88;stroke-width:0.264583;stroke-linecap:round;stroke-linejoin:round;stroke-dasharray:none;paint-order:stroke markers fill"
         d="m 116.25832,21.388328 2.275,-4.454997 h 8.46666"
         id="path1678" /><path
         style="fill:none;stroke:#4e6f88;stroke-width:0.264583;stroke-linecap:round;stroke-linejoin:round;stroke-dasharray:none;paint-order:stroke markers fill"
         d="M 29.63333,21.166664 25.399997,16.933331 H 16.933331"
         id="path1680" /><path
         style="fill:none;stroke:#c9435e;stroke-width:0.264583;stroke-linecap:round;stroke-linejoin:round;stroke-dasharray:none;paint-order:stroke markers fill"
         d="m 97.429985,33.375834 25.336665,-5.85917 h 4.23333"
         id="path1682" /><path
         style="fill:none;stroke:#c9435e;stroke-width:0.264583;stroke-linecap:round;stroke-linejoin:round;stroke-dasharray:none;paint-order:stroke markers fill"
         d="M 48.660936,33.463615 23.28333,27.516663 h -6.349999"
         id="path1684" /><path
         style="fill:none;stroke:#4e6f88;stroke-width:0.264583;stroke-linecap:round;stroke-linejoin:round;stroke-dasharray:none;paint-order:stroke markers fill"
         d="m 119.83164,41.039984 5.05168,-2.93999 h 2.11666"
         id="path1688" /><path
         style="fill:none;stroke:#9f6066;stroke-width:0.264583;stroke-linecap:round;stroke-linejoin:round;stroke-dasharray:none;paint-order:stroke markers fill"
         d="m 110.82664,50.546664 16.17334,-1.863337"
         id="path1744" /><path
         style="fill:none;stroke:#b27bad;stroke-width:0.264583;stroke-linecap:round;stroke-linejoin:round;stroke-dasharray:none;stroke-opacity:1;paint-order:stroke markers fill"
         d="m 101.59999,55.033325 21.16666,4.233333 h 4.23333"
         id="path1746" /><path
         style="fill:none;stroke:#c9435e;stroke-width:0.264583;stroke-linecap:round;stroke-linejoin:round;stroke-dasharray:none;paint-order:stroke markers fill"
         d="m 74.241653,59.741652 44.291667,10.108339 h 8.46666"
         id="path1748" /><path
         style="fill:none;stroke:#c9435e;stroke-width:0.264583;stroke-linecap:round;stroke-linejoin:round;stroke-dasharray:none;paint-order:stroke markers fill"
         d="M 38.614997,41.572019 21.166664,38.099994 h -4.233333"
         id="path1750" /><path
         style="fill:none;stroke:#c9435e;stroke-width:0.264583;stroke-linecap:round;stroke-linejoin:round;stroke-dasharray:none;paint-order:stroke markers fill"
         d="M 34.00101,47.619058 16.933331,48.683327"
         id="path1752" /><path
         style="fill:none;stroke:#c9435e;stroke-width:0.264583;stroke-linecap:round;stroke-linejoin:round;stroke-dasharray:none;paint-order:stroke markers fill"
         d="M 45.121737,47.63093 23.28333,59.266659 h -6.349999"
         id="path1754" /><path
         style="fill:none;stroke:#c9435e;stroke-width:0.264583;stroke-linecap:round;stroke-linejoin:round;stroke-dasharray:none;paint-order:stroke markers fill"
         d="M 40.642098,55.436371 21.166664,69.849991 H 16.933331"
         id="path1756" /></g><g
       id="g2153"
       style="display:none"><rect
         style="fill:none;stroke:#2f2f2f;stroke-width:0.291013;stroke-linecap:round;stroke-linejoin:round;stroke-dasharray:none;stroke-opacity:1;paint-order:stroke markers fill"
         id="rect2062"
         width="10.307885"
         height="8.1834373"
         x="6.4877229"
         y="12.845505"
         ry="8.8484495e-07" /><rect
         style="fill:none;stroke:#2f2f2f;stroke-width:0.291013;stroke-linecap:round;stroke-linejoin:round;stroke-dasharray:none;stroke-opacity:1;paint-order:stroke markers fill"
         id="rect2116"
         width="10.307885"
         height="8.1834373"
         x="6.4877229"
         y="12.845505"
         ry="8.8484495e-07" /><rect
         style="fill:none;stroke:#2f2f2f;stroke-width:0.291013;stroke-linecap:round;stroke-linejoin:round;stroke-dasharray:none;stroke-opacity:1;paint-order:stroke markers fill"
         id="rect2118"
         width="10.307885"
         height="8.1834373"
         x="6.4877229"
         y="23.428843"
         ry="8.8484495e-07" /><rect
         style="fill:none;stroke:#2f2f2f;stroke-width:0.291013;stroke-linecap:round;stroke-linejoin:round;stroke-dasharray:none;stroke-opacity:1;paint-order:stroke markers fill"
         id="rect2120"
         width="10.307885"
         height="8.1834373"
         x="6.4877229"
         y="34.012184"
         ry="8.8484495e-07" /><rect
         style="fill:none;stroke:#2f2f2f;stroke-width:0.291013;stroke-linecap:round;stroke-linejoin:round;stroke-dasharray:none;stroke-opacity:1;paint-order:stroke markers fill"
         id="rect2122"
         width="10.307885"
         height="8.1834373"
         x="6.4877229"
         y="44.595528"
         ry="8.8484495e-07" /><rect
         style="fill:none;stroke:#2f2f2f;stroke-width:0.291013;stroke-linecap:round;stroke-linejoin:round;stroke-dasharray:none;stroke-opacity:1;paint-order:stroke markers fill"
         id="rect2124"
         width="10.307885"
         height="8.1834373"
         x="6.4877229"
         y="55.178871"
         ry="8.8484495e-07" /><rect
         style="fill:none;stroke:#2f2f2f;stroke-width:0.291013;stroke-linecap:round;stroke-linejoin:round;stroke-dasharray:none;stroke-opacity:1;paint-order:stroke markers fill"
         id="rect2126"
         width="10.307885"
         height="8.1834373"
         x="6.4877229"
         y="65.762215"
         ry="8.8484495e-07" /><rect
         style="fill:none;stroke:#2f2f2f;stroke-width:0.291013;stroke-linecap:round;stroke-linejoin:round;stroke-dasharray:none;stroke-opacity:1;paint-order:stroke markers fill"
         id="rect2128"
         width="10.307885"
         height="8.1834373"
         x="127.13771"
         y="12.845505"
         ry="8.8484495e-07" /><rect
         style="fill:none;stroke:#2f2f2f;stroke-width:0.291013;stroke-linecap:round;stroke-linejoin:round;stroke-dasharray:none;stroke-opacity:1;paint-order:stroke markers fill"
         id="rect2130"
         width="10.307885"
         height="8.1834373"
         x="127.13771"
         y="23.428843"
         ry="8.8484495e-07" /><rect
         style="fill:none;stroke:#2f2f2f;stroke-width:0.291013;stroke-linecap:round;stroke-linejoin:round;stroke-dasharray:none;stroke-opacity:1;paint-order:stroke markers fill"
         id="rect2132"
         width="10.307885"
         height="8.1834373"
         x="127.13771"
         y="34.012184"
         ry="8.8484495e-07" /><rect
         style="fill:none;stroke:#2f2f2f;stroke-width:0.291013;stroke-linecap:round;stroke-linejoin:round;stroke-dasharray:none;stroke-opacity:1;paint-order:stroke markers fill"
         id="rect2134"
         width="10.307885"
         height="8.1834373"
         x="127.13771"
         y="44.595528"
         ry="8.8484495e-07" /><rect
         style="fill:none;stroke:#2f2f2f;stroke-width:0.291013;stroke-linecap:round;stroke-linejoin:round;stroke-dasharray:none;stroke-opacity:1;paint-order:stroke markers fill"
         id="rect2136"
         width="10.307885"
         height="8.1834373"
         x="127.13771"
         y="55.178871"
         ry="8.8484495e-07" /><rect
         style="fill:none;stroke:#2f2f2f;stroke-width:0.291013;stroke-linecap:round;stroke-linejoin:round;stroke-dasharray:none;stroke-opacity:1;paint-order:stroke markers fill"
         id="rect2138"
         width="10.307885"
         height="8.1834373"
         x="127.13771"
         y="65.762215"
         ry="8.8484495e-07" /></g></g></svg>
